<?xml version="1.0" standalone="no"?>
<!DOCTYPE svg PUBLIC "-//W3C//DTD SVG 1.1//EN" "http://www.w3.org/Graphics/SVG/1.1/DTD/svg11.dtd" >
<svg xmlns="http://www.w3.org/2000/svg">
<metadata>Generated by IcoMoon</metadata>
<defs>
<font id="plus-icon" horiz-adv-x="1024">
<font-face units-per-em="1024" ascent="960" descent="-64" />
<missing-glyph horiz-adv-x="1024" />
<glyph unicode="&#x20;" horiz-adv-x="512" d="" />
<glyph unicode="&#xe900;" glyph-name="above-arrow" d="M268.115 515.234c13.672-13.672 34.894-15.191 50.244-4.557l5.455 4.557 278.491 278.491c13.672 13.672 34.894 15.191 50.244 4.557l5.455-4.557 278.491-278.491c15.381-15.381 40.318-15.381 55.698 0 13.672 13.672 15.191 34.894 4.557 50.244l-4.557 5.455-278.491 278.491c-43.428 43.428-112.251 45.982-158.666 7.664l-8.429-7.664-278.491-278.491c-15.381-15.381-15.381-40.318 0-55.698zM669.538 802.462c0 21.752-17.633 39.385-39.385 39.385-19.335 0-35.415-13.932-38.75-32.305l-0.635-7.079v-630.154c0-19.335-13.932-35.415-32.305-38.75l-7.079-0.635h-472.615c-21.752 0-39.385-17.633-39.385-39.385 0-19.335 13.932-35.415 32.305-38.75l7.079-0.635h472.615c61.416 0 111.888 46.859 117.613 106.775l0.541 11.379v630.154z" />
<glyph unicode="&#xe901;" glyph-name="account-login" d="M914.268 596.706c11.435 13.475 31.629 15.128 45.104 3.693 12.25-10.396 14.73-28.030 6.488-41.274l-2.795-3.83-129.319-152.381c-11.219-13.22-30.65-14.923-43.939-4.642l-3.461 3.101-84.015 86.871c-12.286 12.704-11.948 32.962 0.756 45.249 11.549 11.169 29.341 11.905 41.712 2.402l3.537-3.158 59.472-61.482 106.46 125.452zM533.516 437.333c191.622 0 348.849-144.442 393.85-366.991 3.503-17.323-7.7-34.205-25.023-37.707s-34.205 7.7-37.707 25.023c-38.373 189.771-165.762 310.236-320.525 315.496l-10.594 0.18h-42.479c-159.859 0-292.967-121.582-331.654-315.591-3.456-17.332-20.308-28.58-37.64-25.124s-28.58 20.308-25.124 37.64c43.527 218.279 196.363 361.381 383.17 366.909l11.249 0.166h42.479zM512 864c-111.93 0-202.667-90.737-202.667-202.667s90.737-202.667 202.667-202.667c111.93 0 202.667 90.737 202.667 202.667s-90.737 202.667-202.667 202.667zM512 800c76.583 0 138.667-62.083 138.667-138.667s-62.083-138.667-138.667-138.667c-76.583 0-138.667 62.083-138.667 138.667s62.083 138.667 138.667 138.667z" />
<glyph unicode="&#xe902;" glyph-name="account-logout" d="M533.333 439.467c192 0 349.867-145.067 392.533-366.933 4.267-17.067-8.533-34.133-25.6-38.4s-34.133 8.533-38.4 25.6c-38.4 187.733-166.4 311.467-320 315.733h-51.2c-157.867 0-294.4-119.467-332.8-315.733-4.267-17.067-21.333-29.867-38.4-25.6s-29.867 21.333-25.6 38.4c42.667 217.6 196.267 362.667 384 366.933h55.467zM512 866.133c-110.933 0-204.8-93.867-204.8-204.8s89.6-204.8 204.8-204.8 204.8 89.6 204.8 204.8-93.867 204.8-204.8 204.8zM512 797.867c76.8 0 136.533-64 136.533-136.533s-64-136.533-136.533-136.533-136.533 59.733-136.533 136.533 59.733 136.533 136.533 136.533z" />
<glyph unicode="&#xe903;" glyph-name="add-to-cart" d="M913.209 502.857c30.297 0 54.857-24.56 54.857-54.857 0-27.543-20.298-50.344-46.751-54.262l-8.106-0.595h-802.418c-30.297 0-54.857 24.56-54.857 54.857 0 27.543 20.298 50.344 46.751 54.262l8.106 0.595h802.418zM512 904.066c27.543 0 50.344-20.298 54.262-46.751l0.595-8.106v-802.418c0-30.297-24.56-54.857-54.857-54.857-27.543 0-50.344 20.298-54.262 46.751l-0.595 8.106v802.418c0 30.297 24.56 54.857 54.857 54.857z" />
<glyph unicode="&#xe904;" glyph-name="aed" d="M661.333 682.667c-51.2-4.267-102.4-21.333-140.8-55.467l-8.533-4.267-4.267 4.267c-98.133 81.067-238.933 72.533-328.533-17.067-93.867-93.867-93.867-251.733 0-345.6l260.267-260.267c38.4-38.4 102.4-42.667 145.067-4.267l264.533 264.533c46.933 46.933 72.533 106.667 72.533 170.667s-25.6 128-72.533 170.667c-46.933 46.933-106.667 72.533-170.667 72.533l-17.067 4.267zM674.133 618.667c46.933 0 93.867-17.067 128-51.2s51.2-81.067 51.2-128c0-42.667-17.067-85.333-46.933-119.467l-268.8-268.8c-17.067-17.067-38.4-17.067-55.467-4.267l-264.533 264.533c-68.267 68.267-68.267 183.467 0 256 72.533 68.267 183.467 68.267 251.733 4.267l42.667-42.667 34.133 34.133c34.133 38.4 81.067 55.467 128 55.467zM597.333 533.333l-170.667-213.333h85.333l-42.667-170.667 170.667 256h-85.333zM307.2 746.667l8.533 25.6h59.733l8.533-25.6h42.667l-59.733 149.333h-42.667l-59.733-149.333h42.667zM362.667 806.4h-34.133l17.067 42.667 17.067-42.667zM576 746.667v34.133h-81.067v25.6h72.533v29.867h-72.533v25.6h81.067v34.133h-119.467v-149.333h119.467zM661.333 746.667c55.467 0 85.333 34.133 85.333 76.8v0c0 42.667-29.867 72.533-85.333 72.533h-59.733v-149.333h59.733zM661.333 785.067h-17.067v72.533h17.067c25.6 0 42.667-12.8 42.667-38.4v0c0-21.333-17.067-34.133-42.667-34.133z" />
<glyph unicode="&#xe905;" glyph-name="appetizer" d="M787.917 917.75c-40.624-3.094-71.917-28.517-103.917-66.917l-9.833-14.583c-8.533-8.533-12.817-17.050-17.083-25.583l-4.25-4.25h-4.333c-21.333 4.267-38.333-0.050-59.667-8.583l-8.583-4.25c-29.867-17.067-51.2-42.667-64-85.333v-4.25h-4.25c-17.067 4.267-29.85 8.5-46.917 8.5-55.467 0-93.9-34.133-98.167-106.667v-111.333c-16.838-6.718-32.813-14.91-46.917-25.167l-8.5-4.25-17.083-17.083h-4.25l-8.583 4.25c-29.867 8.533-63.95 12.8-98.083 0-12.8-4.267-25.65-8.533-29.917-21.333-25.6-17.067-38.367-34.15-51.167-59.75-8.139-18.991-11.998-39.419-14.333-59.667h-45.417v-34.167c0-166.4 119.5-298.667 268.833-298.667h401c149.333 0 268.833 132.267 268.833 298.667v34.167h-42.667v8.5c0 21.333-8.517 51.217-25.583 81.083-6.4 12.8-15.17 23.914-25.167 34.083 4.279 4.050 8.754 7.823 12.333 12.833l4.25 4.25c8.533 12.8 12.833 21.383 12.833 29.917v8.5c8.533 29.867 4.233 55.483-12.833 81.083l-4.25 4.25 8.583 8.5c17.067 21.333 25.567 42.733 29.833 68.333v8.5c0 25.6-8.5 51.167-29.833 72.5l4.25 12.833c8.533 21.333 8.5 38.417 8.5 59.75-4.267 51.2-34.117 93.867-89.583 106.667-16 4.267-30.542 5.698-44.083 4.667zM791.167 847.167c9.067 0.533 18.4-0.2 28-2.333 29.867-8.533 42.667-21.4 42.667-47 0-12.8-4.233-29.85-8.5-46.917 0-4.267-4.25-8.483-4.25-12.75l-4.25-8.583c-4.267-17.067 4.2-34.133 17-42.667s17.083-17.050 17.083-25.583c0-8.533-8.55-25.617-17.083-38.417s-17.067-21.317-21.333-25.583c-17.067-12.8-17.067-38.367 0-51.167 17.067-17.067 21.35-29.933 17.083-47 0 0 0.017-4.233-4.25-8.5-8.533-12.8-21.333-17.1-42.667-12.833-0.149 0-0.269-0.081-0.418-0.085-49.723 14.64-92.628 2.273-131.833-21.25l-8.582-4.248-8.5-8.5-8.5 4.25c-8.112 3.245-17.584 7.584-27.167 11.833l1.5 1c21.333 21.333 42.667 46.9 64 72.5 42.667 51.2 76.85 110.933 93.917 170.667 8.533 17.067-0.017 38.4-17.083 42.667-12.8 4.267-29.9-4.267-34.167-21.333-13.126-39.377-33.986-78.73-62.25-116.167l-14.5 39.333v4.333c-8.533 12.8-25.617 17.017-38.417 12.75-12.8-8.533-21.367-29.85-12.833-46.917l20.583-61.75c-12.905-14.079-25.562-28.171-39.417-42.25l-28.083 65.583v4.25c-8.533 17.067-25.617 21.367-38.417 12.833-17.067-8.533-21.283-29.867-12.75-42.667l25.667-59.75c-11.095 3.47-22.297 6.591-34.25 8.583-17.067 4.267-33.833 6.4-50.167 6.667-7.617 0.124-14.94-0.838-22.333-1.5v97.167c0 34.133 12.817 47 38.417 47 12.8 0 25.617-4.317 38.417-8.583 4.267 0 8.483-4.25 12.75-4.25l4.25-4.25c17.067-8.533 38.4 4.25 42.667 25.583 4.267 46.933 21.333 72.55 42.667 81.083 8.533 8.533 25.617 8.517 38.417 4.25h12.833c12.8-4.267 25.55 8.533 34.083 21.333l4.333 8.5c4.267 8.533 12.8 21.383 21.333 29.917 22.4 25.6 47.133 39.15 74.333 40.75zM451.417 445.083c12.333-0.533 25.383-2.383 39.25-5.583 21.333-8.533 42.667-12.8 64-21.333 29.867-8.533 51.167-21.383 72.5-29.917 8.533-4.267 11.893-5.423 17.083-8.5l11.417-6.75 14.167-10.333 8.583 12.833 4.25 4.25c4.267 4.267 12.8 12.817 21.333 17.083 29.867 17.067 64.033 25.55 98.167 12.75 25.6-8.533 46.867-25.583 59.667-46.917 8.533-12.8 12.817-25.617 17.083-38.417v-12.75h-731.417c2.021 11.73 5.090 23.596 10.333 34.083 8.533 17.067 17.117 29.883 29.917 38.417 4.267 4.267 8.55 4.233 17.083 8.5 21.333 8.533 42.65 4.283 68.25-4.25 4.267 0 8.483-4.25 12.75-4.25 7.041-7.634 17.105-11.433 25.667-17.083l17 21.333c9.972 12.485 20.957 18.023 29.917 25.583 25.6 22.4 56 32.85 93 31.25zM106.667 243.167h810.667v-4.25c-17.067-110.933-102.417-196.25-209.083-196.25h-405.333c-102.4 4.267-183.45 85.317-196.25 196.25z" />
<glyph unicode="&#xe906;" glyph-name="arrow-down" d="M16.662 686.862c20.197 20.774 51.802 22.662 74.072 5.666l6.381-5.666 414.885-426.712 414.885 426.712c20.197 20.774 51.802 22.662 74.072 5.666l6.381-5.666c20.197-20.774 22.033-53.282 5.508-76.189l-5.508-6.563-455.111-468.114c-20.197-20.774-51.802-22.662-74.072-5.666l-6.381 5.666-455.111 468.114c-22.216 22.851-22.216 59.9 0 82.752z" />
<glyph unicode="&#xe907;" glyph-name="arrow-left" d="M770.588 919.922c-22.721 22.721-58.277 24.787-83.332 6.197l-7.178-6.197-426.667-426.667c-22.721-22.721-24.787-58.277-6.197-83.332l6.197-7.178 426.667-426.667c24.994-24.994 65.516-24.994 90.51 0 22.721 22.721 24.787 58.277 6.197 83.332l-6.197 7.178-381.383 381.412 381.383 381.412c22.721 22.721 24.787 58.277 6.197 83.332l-6.197 7.178z" />
<glyph unicode="&#xe908;" glyph-name="arrow-right" d="M253.412 919.922c22.721 22.721 58.277 24.787 83.332 6.197l7.178-6.197 426.667-426.667c22.721-22.721 24.787-58.277 6.197-83.332l-6.197-7.178-426.667-426.667c-24.994-24.994-65.516-24.994-90.51 0-22.721 22.721-24.787 58.277-6.197 83.332l6.197 7.178 381.383 381.412-381.383 381.412c-22.721 22.721-24.787 58.277-6.197 83.332l6.197 7.178z" />
<glyph unicode="&#xe909;" glyph-name="arrow-up" d="M16.662 221.329c20.197-20.774 51.802-22.662 74.072-5.666l6.381 5.666 414.885 426.712 414.885-426.712c20.197-20.774 51.802-22.662 74.072-5.666l6.381 5.666c20.197 20.774 22.033 53.282 5.508 76.189l-5.508 6.563-455.111 468.114c-20.197 20.774-51.802 22.662-74.072 5.666l-6.381-5.666-455.111-468.114c-22.216-22.851-22.216-59.9 0-82.752z" />
<glyph unicode="&#xe90a;" glyph-name="back-arrow" d="M455.11 848.734c16.172 16.172 42.393 16.172 58.565 0 14.702-14.702 16.039-37.708 4.010-53.92l-4.010-4.645-347.466-347.466c-4.492-4.492-5.241-11.311-2.246-16.578l2.246-2.943 347.466-347.466c16.172-16.172 16.172-42.393 0-58.565-14.702-14.702-37.708-16.039-53.92-4.010l-4.645 4.010-347.466 347.466c-35.516 35.516-37.605 91.8-6.267 129.759l6.267 6.893 347.466 347.466zM153.098 474.353h828.235v-82.824h-828.235v82.824z" />
<glyph unicode="&#xe90b;" glyph-name="bell" d="M887.467 209.067c17.067 0 34.133-12.8 34.133-34.133 0-17.067-12.8-29.867-25.6-29.867h-729.6c-17.067 0-34.133 12.8-34.133 34.133 0 17.067 12.8 29.867 25.6 29.867h729.6zM844.8 422.4c17.067 0 34.133-12.8 34.133-34.133 0-17.067-12.8-29.867-25.6-29.867h-644.267c-17.067 0-34.133 12.8-34.133 34.133 0 17.067 12.8 29.867 25.6 29.867h644.267zM520.533 917.333c204.8 0 328.533-213.333 384-631.467l4.267-38.4 4.267-42.667c0-8.533 0-12.8 0-21.333 0-17.067-12.8-34.133-29.867-34.133s-34.133 12.8-34.133 29.867l-4.267 42.667-4.267 38.4c0 12.8-4.267 25.6-4.267 38.4l-4.267 38.4c-55.467 349.867-157.867 520.533-311.467 520.533-132.267 0-226.133-123.733-285.867-384l-8.533-34.133c-4.267-17.067-8.533-34.133-8.533-51.2l-8.533-76.8c-4.267-29.867-8.533-64-12.8-98.133l-4.267-42.667c0-17.067-17.067-29.867-34.133-29.867s-29.867 25.6-29.867 42.667l4.267 42.667c0 12.8 4.267 25.6 4.267 38.4l8.533 76.8c4.267 29.867 8.533 59.733 17.067 89.6l17.067 68.267 8.533 29.867c64 256 174.933 388.267 332.8 388.267zM580.267 93.867c12.8 12.8 29.867 17.067 46.933 4.267 12.8-12.8 17.067-29.867 4.267-46.933-29.867-34.133-64-55.467-106.667-55.467s-76.8 17.067-106.667 55.467c-12.8 12.8-8.533 34.133 4.267 46.933s34.133 8.533 46.933-4.267c17.067-21.333 38.4-29.867 55.467-29.867s38.4 8.533 55.467 29.867z" />
<glyph unicode="&#xe90c;" glyph-name="below-arrow" d="M795.269 420.151c-13.672 13.672-34.894 15.191-50.244 4.557l-5.455-4.557-278.491-278.491c-13.672-13.672-34.894-15.191-50.244-4.557l-5.455 4.557-278.491 278.491c-15.381 15.381-40.318 15.381-55.698 0-13.672-13.672-15.191-34.894-4.557-50.244l4.557-5.455 278.491-278.491c43.428-43.428 112.251-45.982 158.666-7.664l8.429 7.664 278.491 278.491c15.381 15.381 15.381 40.318 0 55.698zM393.846 132.923c0-21.752 17.633-39.385 39.385-39.385 19.335 0 35.415 13.932 38.75 32.305l0.635 7.079v630.154c0 19.335 13.932 35.415 32.305 38.75l7.079 0.635h472.615c21.752 0 39.385 17.633 39.385 39.385 0 19.335-13.932 35.415-32.305 38.75l-7.079 0.635h-472.615c-61.416 0-111.888-46.859-117.613-106.775l-0.541-11.379v-630.154z" />
<glyph unicode="&#xe90d;" glyph-name="breakfast" d="M469.333 789.333c-25.6 0-51.217-4.283-81.083-17.083-64.504-24.809-109.391-77.327-128-138.5-91.97-9.945-162.455-81.808-166.417-172.917v-38.417c-55.467-76.8-76.783-243.25-4.25-285.917 38.4-21.333 68.317-8.483 93.917 29.917l21.333 34.083c4.267 12.8 12.733 21.383 17 29.917 8.533 17.067 21.367 29.883 34.167 38.417h34.167c31.445 0 59.589 12.953 78.667 34.75 24.408-13.724 53.825-18.272 83.417-9.167l8.583 4.25c12.8 4.267 29.833 8.5 51.167 8.5 17.067 0 29.867 0.017 42.667-4.25l4.25-4.25c29.867-12.8 68.317-8.567 93.917 8.5l4.25-4.25c17.067-21.333 46.883-34.083 76.75-34.083h34.167c12.8-8.533 25.633-21.35 34.167-38.417 4.267-8.533 12.733-17.117 17-29.917l21.333-34.083c25.6-38.4 55.517-51.25 93.917-29.917 72.533 42.667 51.217 209.117-4.25 285.917v38.417c0 93.867-72.55 166.383-166.417 174.917-25.6 89.6-110.95 153.583-209.083 153.583h-85.333zM469.333 729.583h85.333c85.333 0 157.9-68.25 162.167-153.583 0-17.067-0.050-38.433-8.583-55.5l-55.417-136.5c-8.533-25.6-38.4-38.367-64-29.833-21.333 8.533-46.983 12.75-72.583 12.75-29.867 0-51.167-4.217-72.5-12.75-25.6-8.533-55.467 4.233-64 29.833l-55.5 136.5c-34.133 81.067 8.517 170.717 89.583 200.583 17.067 4.267 34.167 8.5 55.5 8.5zM772.25 576c55.467-12.8 98.167-64.033 98.167-119.5v-42.667c-4.267-46.933-42.65-81-89.583-81h-47c-12.8 0-29.817 12.783-34.083 25.583 4.267 4.267 4.25 4.233 4.25 8.5l55.5 136.583c8.533 21.333 12.75 42.667 12.75 64v8.5zM250.5 575.25c-0.415-26.655 3.818-53.86 14-80.333l55.5-136.5c1.726-4.143 4.012-7.9 6.167-11.75-6.961-8.252-16.633-13.833-27.5-13.833h-46.917c-46.933 0-85.317 34.067-89.583 81v42.667c0 56.812 38.555 104.259 88.333 118.75zM115.167 337.083c17.067-25.6 38.4-42.7 64-55.5-4.267-4.267-8.483-12.8-12.75-21.333l-4.25-8.5c-12.8-21.333-29.917-59.75-29.917-59.75l-4.25-8.5c0-4.267 0.017 0-4.25 0-29.867 17.067-25.65 93.85-8.583 153.583zM908.833 337.083c17.067-59.733 21.267-136.533-4.333-149.333-4.267 0-4.25-4.267-4.25 0l-4.25 8.5c0 0-8.55 12.85-17.083 29.917l-4.25 8.5c-4.267 4.267-8.567 12.817-12.833 17.083l-4.25 8.5c-4.267 8.533-8.483 17.067-12.75 21.333 25.6 12.8 46.933 29.9 64 55.5z" />
<glyph unicode="&#xe90e;" glyph-name="card-connected" d="M566.171 863.686c100.449 97.017 260.118 95.629 358.866-3.118 96.149-96.149 99.995-250.055 10.333-351.059l-7.475-8.071-140.797-140.797c-52.512-52.532-125.252-79.665-199.34-74.359s-142.218 42.529-186.708 102.007c-7.057 9.435-5.13 22.804 4.305 29.861s22.804 5.13 29.861-4.305c37.075-49.566 93.851-80.585 155.59-85.006 58.108-4.162 115.221 15.623 158.224 54.464l7.895 7.505 140.54 140.536c80.847 83.707 79.691 216.765-2.599 299.055-79.796 79.796-207.33 83.302-291.111 9.919l-7.724-7.105-80.725-80.256c-8.355-8.307-21.863-8.267-30.17 0.088-7.384 7.427-8.173 18.925-2.389 27.222l2.477 2.947 80.946 80.472zM558.761 871.359c104.634 101.059 270.956 99.614 373.818-3.248 100.225-100.225 104.167-260.696 10.459-366.017l-7.601-8.198-140.796-140.796c-54.7-54.72-130.471-82.985-207.645-77.458s-148.144 44.301-194.488 106.258c-10.586 14.152-7.695 34.206 6.457 44.792s34.206 7.695 44.792-6.457c35.222-47.087 89.158-76.555 147.811-80.756 54.987-3.938 109.036 14.696 149.835 51.311l7.98 7.561 140.41 140.403c76.805 79.522 75.707 205.927-2.469 284.102-75.732 75.732-196.727 79.13-276.212 9.736l-7.56-6.943-80.725-80.256c-12.533-12.46-32.794-12.401-45.255 0.132-11.328 11.394-12.308 29.174-2.977 41.675l3.109 3.58 81.056 80.58zM229.358 542.901c54.7 54.72 130.471 82.985 207.645 77.458s148.144-44.301 194.488-106.258c10.586-14.152 7.695-34.206-6.457-44.792s-34.206-7.695-44.792 6.457c-35.222 47.087-89.158 76.555-147.811 80.756-54.987 3.938-109.036-14.696-149.835-51.311l-7.98-7.561-140.41-140.403c-76.805-79.522-75.707-205.927 2.469-284.102 75.732-75.732 196.727-79.13 276.152-9.795l7.554 6.937 80.256 80.256c12.497 12.497 32.758 12.497 45.255 0 11.361-11.361 12.393-29.138 3.098-41.666l-3.098-3.589-80.653-80.646c-104.634-101.059-270.956-99.614-373.818 3.248-100.225 100.225-104.167 260.696-10.459 366.017l7.601 8.198 140.796 140.796z" />
<glyph unicode="&#xe90f;" glyph-name="cart" d="M371.2 198.4c-69.514 0-125.867-56.352-125.867-125.867s56.352-125.867 125.867-125.867c69.514 0 125.867 56.352 125.867 125.867s-56.352 125.867-125.867 125.867zM371.2 134.4c34.168 0 61.867-27.699 61.867-61.867s-27.699-61.867-61.867-61.867c-34.168 0-61.867 27.699-61.867 61.867s27.699 61.867 61.867 61.867zM699.733 198.4c-69.514 0-125.867-56.352-125.867-125.867s56.352-125.867 125.867-125.867c69.514 0 125.867 56.352 125.867 125.867s-56.352 125.867-125.867 125.867zM699.733 134.4c34.168 0 61.867-27.699 61.867-61.867s-27.699-61.867-61.867-61.867c-34.168 0-61.867 27.699-61.867 61.867s27.699 61.867 61.867 61.867zM128.713 949.333c13.78 0 25.822-8.785 30.23-21.498l1.178-4.376 20.53-105.454 800.683-0.010c20.692 0 35.532-19.162 31.306-38.674l-1.202-4.18-126.373-350.51c-4.067-11.279-14.031-19.215-25.669-20.839l-4.434-0.307-593.414 0.014 21.675-111.189 529.019-0.043c16.2 0 29.589-12.039 31.708-27.658l0.292-4.342c0-16.2-12.039-29.589-27.658-31.708l-4.342-0.292h-555.366c-13.78 0-25.822 8.785-30.23 21.498l-1.178 4.376-123.151 631.193h-59.648c-16.2 0-29.589 12.039-31.708 27.658l-0.292 4.342c0 16.2 12.039 29.589 27.658 31.708l4.342 0.292h86.046zM249.045 467.499h583.381l103.339 286.507h-742.613l55.893-286.507z" />
<glyph unicode="&#xe910;" glyph-name="change" d="M406.191 118.934l-45.255 45.255 543.058 543.058c9.051 9.051 15.085 21.119 15.085 39.221 0 12.068-3.017 27.153-15.085 39.221l-60.34 60.34c-21.119 21.119-54.306 18.102-78.442 0l-543.058-543.058-42.238 42.238 543.058 543.058c45.255 45.255 120.68 48.272 168.951 0l60.34-60.34c21.119-21.119 33.187-51.289 33.187-81.459s-15.085-63.357-36.204-84.476l-543.058-543.058zM122.594 46.526c-9.051 3.017-15.085 15.085-18.102 24.136s-3.017 15.085 0 24.136l66.374 235.325c3.017 9.051 9.051 21.119 18.102 24.136l21.119 15.085 199.121-187.053c9.051-9.051 12.068-18.102 12.068-30.17v-12.068l-6.034-18.102-259.461-78.442c-3.017-3.017-24.136 0-33.187 3.017zM164.832 76.696v0 0zM222.155 272.8l-48.272-156.883 156.883 48.272-108.612 108.612zM234.223 315.038v0 0zM713.924 794.739l39.221 39.221 138.781-138.781-39.221-39.221z" />
<glyph unicode="&#xe911;" glyph-name="check" d="M923.403 799.058c17.153 20.212 47.444 22.692 67.656 5.539 18.375-15.594 22.095-42.045 9.732-61.911l-4.193-5.745-543.138-640c-16.829-19.83-45.975-22.385-65.909-6.963l-5.192 4.652-352.862 364.856c-18.429 19.056-17.922 49.443 1.134 67.873 17.323 16.754 44.012 17.857 62.568 3.603l5.305-4.737 316.024-326.738 508.875 599.57z" />
<glyph unicode="&#xe912;" glyph-name="close" d="M912.067 925.647c21.423 21.423 56.157 21.423 77.58 0 19.475-19.475 21.246-49.951 5.311-71.427l-5.311-6.153-877.714-877.714c-21.423-21.423-56.157-21.423-77.58 0-19.475 19.475-21.246 49.951-5.311 71.427l5.311 6.153 877.714 877.714zM34.353 925.647c19.475 19.475 49.951 21.246 71.427 5.311l6.153-5.311 877.714-877.714c21.423-21.423 21.423-56.157 0-77.58-19.475-19.475-49.951-21.246-71.427-5.311l-6.153 5.311-877.714 877.714c-21.423 21.423-21.423 56.157 0 77.58z" />
<glyph unicode="&#xe913;" glyph-name="collect" d="M320 917.333c-76.8 0-145.083-64.017-145.083-145.083 0-30.225 8.973-58.036 24.333-81.083h-88.333c-38.4 0-68.25-34.083-68.25-76.75v-140.833c4.267-42.667 38.433-72.5 76.833-72.5h12.75v-354.167c4.267-38.4 38.433-68.25 76.833-68.25h614.417c38.4 0 68.25 34.1 68.25 72.5v349.917h17.083c38.4 0 68.25 34.083 68.25 76.75v140.833c-4.267 42.667-38.433 72.5-76.833 72.5h-57.583c17.271 23.881 27.75 53.115 27.75 85.333 0 81.067-64.017 140.833-145.083 140.833s-145.083-51.2-187.75-128c-4.383-8.766-8.538-18.327-12.75-27.75-4.216 9.435-8.446 18.974-12.833 27.75-46.933 76.8-106.667 128-192 128zM320 849.083c55.467 0 98.133-34.183 128-93.917l8.5-12.75c8.533-12.8 12.817-29.867 17.083-42.667v-4.25h-153.583c-42.667 0-76.833 34.083-76.833 76.75s34.167 76.833 76.833 76.833zM725.333 849.083c42.667 0 76.833-34.167 76.833-76.833v-8.5c-4.267-38.4-38.433-72.583-76.833-72.583h-159c7.583 21.814 15.453 41.406 26.75 64 34.133 59.733 76.783 93.917 132.25 93.917zM119.5 627.167h371.167v-157.833h-375.5c-4.267 4.267-8.5 8.567-8.5 12.833v136.5c4.267 4.267 8.567 8.5 12.833 8.5zM554.667 627.167h349.833c8.533 0 12.85-4.217 8.583-12.75v-136.583c0-4.267-4.317-8.5-8.583-8.5h-349.833v157.833zM196.25 405.333h294.417v-358.417h-285.833c-4.267 0-8.583 4.317-8.583 8.583v349.833zM554.667 405.333h273.083l-4.25-345.583v-4.25c0-4.267-4.317-8.583-8.583-8.583h-260.25v358.417z" />
<glyph unicode="&#xe914;" glyph-name="delivery" d="M624.176 805.749c49.257 0 89.242-39.827 89.437-89.083l0.7-255.743-0.357-144.289-0.404-26.027-0.313-8.237c5.023-11.651 0.471-24.512-13.66-38.581l-5.065-4.733c-10.538-9.294-18.71-20.914-23.896-33.893l-2.747-7.942c-7.823-26.591-24.452-39.888-49.88-39.888h-239.555c11.229 58.958-7.599 88.433-56.482 88.433-47.596 0-63.562-29.478-47.892-88.433h-164.521c-49.395 0-89.438 40.043-89.438 89.438v380.112c0 98.791 80.084 178.875 178.875 178.875h425.207zM624.175 738.672h-425.206c-59.275 0-107.774-46.13-111.56-104.446l-0.238-7.351v-380.112c0-10.977 7.909-20.106 18.34-22l4.020-0.36h94.937l0.788 3.697c11.161 48.857 48.004 81.65 107.966 84.531l8.724 0.208c65.572 0 107.547-33.638 121.381-86.146l0.523-2.287h162.329l0.398 1.066c7.801 21.471 20.119 40.886 35.399 56.251l4.223 4.036 0.415 11.737 0.436 43.547 0.179 60.914-0.697 314.445c-0.048 12.314-10.044 22.271-22.359 22.271zM321.945 313.843c67.917 0 122.975-55.058 122.975-122.975s-55.058-122.975-122.975-122.975c-67.917 0-122.975 55.058-122.975 122.975s55.058 122.975 122.975 122.975zM321.945 246.766c-30.873 0-55.899-25.026-55.899-55.899s25.026-55.899 55.899-55.899c30.873 0 55.899 25.026 55.899 55.899s-25.026 55.899-55.899 55.899zM816.847 671.595c34.277 0 65.537-19.588 80.485-50.432l75.265-155.305c5.892-12.157 8.953-25.493 8.953-39.004v-180.085c0-49.395-40.043-89.438-89.438-89.438h-79.846c-19.911 5.546-26.181 17.929-30.267 31.936l-4.275 16.167c-3.041 10.868-7.269 21.551-17.519 29.845-14.352 12.126-33.066 12.696-51.379 10.173l-9.921-1.632-23.321-4.758c-1.444-0.276-2.857-0.53-4.239-0.762l-7.881-1.031c-18.603-1.562-28.398 5.437-17.306 42.466v302.419c0 49.395 40.043 89.438 89.438 89.438h81.251zM816.847 604.515h-81.251c-10.977 0-20.106-7.909-22-18.34l-0.36-4.020v-268.849l2.183 0.162c29.718 1.758 56.778-3.861 80.102-20.671l6.885-5.381c20.536-16.621 30.988-34.743 38.313-58.464l1.265-4.547h50.13c10.977 0 20.106 7.909 22 18.34l0.36 4.020v180.085c0 2.251-0.342 4.484-1.002 6.622l-1.234 3.128-75.265 155.305c-3.204 6.61-9.402 11.151-16.504 12.314l-3.618 0.295zM724.415 313.843c67.917 0 122.975-55.058 122.975-122.975s-55.058-122.975-122.975-122.975c-67.917 0-122.975 55.058-122.975 122.975s55.058 122.975 122.975 122.975zM724.415 246.766c-30.873 0-55.899-25.026-55.899-55.899s25.026-55.899 55.899-55.899c30.873 0 55.899 25.026 55.899 55.899s-25.026 55.899-55.899 55.899z" />
<glyph unicode="&#xe915;" glyph-name="dessert" d="M335.601 943.728c-14.372 1.691-28.728-4.262-35.491-17.789-9.019-13.527-4.561-36.071 13.475-45.091 9.019-4.509 22.581-13.491 36.109-31.527 15.771-15.771 26.873-31.651 33.819-48.964-51.415-22.336-87.979-71.872-87.979-131.396 0-19.995 4.224-38.879 11.625-56.011l-25.099-25.187h-4.492c-36.071 13.527-76.654 13.561-112.726-8.983-9.019-4.509-18.106-9.035-27.125-18.054-27.055-22.544-40.564-49.634-49.581-81.197-8.014-36.063-4.904-72.082 5.284-108.146h-45.883c-18.036 0-31.527-13.58-31.527-31.616s18.072-31.527 36.109-31.527h61.559l60.15-229.942c22.544-76.654 90.216-126.288 171.379-126.288h338.178c81.163 0 148.764 49.634 166.799 126.288l60.15 229.942h66.137c18.036 0 31.527 13.491 31.527 31.527s-18.072 31.616-36.109 31.616h-47.38c7.384 29.318 10.959 61.552 6.869 90.179 0 40.58-18.036 76.601-45.091 103.654-13.527 9.019-22.581 18.036-36.109 22.544l-8.983 4.492c-22.544 13.527-45.091 13.561-67.635 13.561h-4.579l-4.492 8.983c-4.509 13.527-13.527 27.071-22.544 40.599-37.909 54.758-95.685 85.5-169.265 85.689-24.707 41.302-69.492 68.93-120.917 71.422-8.494 29.821-24.463 58.37-47.997 81.902-22.544 22.544-40.546 36.071-54.074 45.091-4.509 2.255-9.3 3.664-14.091 4.228zM444.365 745.577c45.091 0 81.197-36.037 81.197-76.618s-36.109-76.706-81.197-76.706c-45.091 0-81.197 31.616-81.197 76.706s36.109 76.618 81.197 76.618zM592.14 678.999c36.311-6.932 61.817-24.605 82.167-55.131 9.019-13.527 18.036-27.071 22.544-40.599 4.509-4.509 4.492-9.054 4.492-13.561l4.579-8.983c4.509-18.036 27.055-31.564 45.091-22.544h4.492c18.036 4.509 36.037 4.526 54.074-4.492 4.509-4.509 13.546-9.054 18.054-13.561 13.527-13.527 22.529-36.090 27.036-63.145s0.019-54.055-4.492-81.11c0-1.887-0.657-2.959-0.968-4.492h-680.052c-1.379 2.945-2.749 5.85-4.314 8.983-13.527 27.055-13.58 58.634-9.071 85.689 4.509 18.036 18.089 36.054 31.616 49.581 4.509 4.509 8.964 4.474 13.475 8.983 18.036 9.019 40.616 9.019 58.653 0 4.509 0 8.983-4.492 8.983-4.492l4.492-4.492c13.527-4.509 31.581-4.545 40.599 8.983l34.787 34.787c26.116-21.462 59.467-34.787 95.993-34.787 81.163 0 148.832 63.179 148.832 144.342 0 3.452-0.816 6.656-1.057 10.039zM187.385 303.747h649.23l-54.074-211.977c-13.527-45.091-54.074-76.618-99.164-76.618h-347.247c-45.091 4.509-81.144 31.527-94.672 76.618l-54.074 211.977zM357.884 258.921c-3.944 0.845-8.172 0.863-12.681-0.265-18.036 0-31.634-18.072-27.125-36.109l22.544-130.78v-4.492c9.019-13.527 22.563-27.055 40.599-22.544 18.036 0 31.545 18.072 27.036 36.109l-22.544 130.692v4.579c-6.764 10.145-15.992 20.273-27.829 22.809zM512 258.656c-18.036 0-36.109-13.58-36.109-31.616v-135.27c4.509-13.527 18.072-27.036 36.109-27.036 22.544 0 36.109 13.491 36.109 31.527v135.27c-4.509 13.527-18.072 27.125-36.109 27.125zM674.307 258.656c-18.036 0-31.511-9.088-36.019-27.125l-22.544-130.692v-4.579c-4.509-13.527 9.001-27.019 27.036-31.527s36.090 9.001 40.599 27.036l22.544 130.78v4.492c4.509 13.527-9.088 27.107-27.125 31.616h-4.492z" />
<glyph unicode="&#xe916;" glyph-name="download" d="M404.039 683.961c11.361 11.361 29.138 12.393 41.666 3.098l3.589-3.098 213.333-213.333c11.361-11.361 12.393-29.138 3.098-41.666l-3.098-3.589-213.333-213.333c-12.497-12.497-32.758-12.497-45.255 0-11.361 11.361-12.393 29.138-3.098 41.666l3.098 3.589 190.691 190.706-190.691 190.706c-11.361 11.361-12.393 29.138-3.098 41.666l3.098 3.589zM640 480c17.673 0 32-14.327 32-32 0-16.2-12.039-29.589-27.658-31.708l-4.342-0.292h-512c-17.673 0-32 14.327-32 32 0 16.2 12.039 29.589 27.658 31.708l4.342 0.292h512zM874.667 864c50.81 0 92.401-39.474 95.779-89.427l0.221-6.573v-640c0-50.81-39.474-92.401-89.427-95.779l-6.573-0.221h-234.667c-17.673 0-32 14.327-32 32 0 16.2 12.039 29.589 27.658 31.708l4.342 0.292h234.667c16.2 0 29.589 12.039 31.708 27.658l0.292 4.342v640c0 16.2-12.039 29.589-27.658 31.708l-4.342 0.292h-234.667c-17.673 0-32 14.327-32 32 0 16.2 12.039 29.589 27.658 31.708l4.342 0.292h234.667z" />
<glyph unicode="&#xe917;" glyph-name="extra" d="M149.333 298.667c-81.067 0-149.333 68.267-149.333 149.333s68.267 149.333 149.333 149.333 149.333-68.267 149.333-149.333-68.267-149.333-149.333-149.333zM149.333 533.333c-46.933 0-85.333-38.4-85.333-85.333s38.4-85.333 85.333-85.333 85.333 38.4 85.333 85.333c0 46.933-38.4 85.333-85.333 85.333zM874.667 298.667c-81.067 0-149.333 68.267-149.333 149.333s68.267 149.333 149.333 149.333 149.333-68.267 149.333-149.333-68.267-149.333-149.333-149.333zM874.667 533.333c-46.933 0-85.333-38.4-85.333-85.333s38.4-85.333 85.333-85.333 85.333 38.4 85.333 85.333c0 46.933-38.4 85.333-85.333 85.333zM512 298.667c-81.067 0-149.333 68.267-149.333 149.333s68.267 149.333 149.333 149.333 149.333-68.267 149.333-149.333-68.267-149.333-149.333-149.333zM512 533.333c-46.933 0-85.333-38.4-85.333-85.333s38.4-85.333 85.333-85.333c46.933 0 85.333 38.4 85.333 85.333s-38.4 85.333-85.333 85.333z" />
<glyph unicode="&#xe918;" glyph-name="faq1" d="M512 917.333c259.206 0 469.333-210.128 469.333-469.333s-210.128-469.333-469.333-469.333c-259.206 0-469.333 210.128-469.333 469.333s210.128 469.333 469.333 469.333zM512 853.333c-223.859 0-405.333-181.474-405.333-405.333s181.474-405.333 405.333-405.333c223.859 0 405.333 181.474 405.333 405.333s-181.474 405.333-405.333 405.333zM513.502 359.202l6.571 52.565c72.934 12.484 132.727 49.937 132.727 132.727v1.314c0 82.133-62.421 133.385-154.411 133.385-70.963 0-120.243-29.568-158.353-72.934l49.28-52.565c31.539 33.51 65.707 51.908 107.102 51.908 47.309 0 75.563-25.626 75.563-62.421v-1.314c0-43.366-38.11-70.306-121.557-72.934l-3.285-3.285 13.141-106.445h53.222zM529.271 257.357v2.628c0 24.313-19.71 44.023-44.023 44.023s-44.023-19.71-44.023-44.023v-2.628c0-24.313 19.71-44.023 44.023-44.023s44.023 19.71 44.023 44.023z" />
<glyph unicode="&#xe919;" glyph-name="feedback" d="M512 906.667c-253.315 0-458.667-205.352-458.667-458.667s205.352-458.667 458.667-458.667c253.315 0 458.667 205.352 458.667 458.667s-205.352 458.667-458.667 458.667zM512 842.667c217.968 0 394.667-176.698 394.667-394.667s-176.698-394.667-394.667-394.667c-217.968 0-394.667 176.698-394.667 394.667s176.698 394.667 394.667 394.667zM652.309 372.786c5.589 16.766 23.711 25.827 40.477 20.239s25.827-23.711 20.239-40.477c-6.489-19.468-20.184-46.858-43.108-74.367-39.022-46.827-91.616-75.514-157.916-75.514s-118.894 28.687-157.916 75.514c-22.924 27.508-36.619 54.899-43.108 74.367-5.589 16.766 3.472 34.888 20.239 40.477s34.888-3.472 40.477-20.239c0.878-2.635 3.15-8.248 6.93-15.808 6.457-12.913 14.653-25.855 24.628-37.825 27.644-33.173 63.051-52.486 108.75-52.486s81.106 19.313 108.75 52.486c9.975 11.97 18.172 24.912 24.628 37.825l3.82 8.072c1.555 3.503 2.584 6.156 3.111 7.737zM384.427 618.667c23.564 0 42.667-19.103 42.667-42.667 0-21.881-16.471-39.915-37.691-42.38l-5.403-0.287c-23.564 0-42.667 19.103-42.667 42.667 0 21.881 16.471 39.915 37.691 42.38l5.403 0.287zM640.427 618.667c23.564 0 42.667-19.103 42.667-42.667 0-21.881-16.471-39.915-37.691-42.38l-5.403-0.287c-23.564 0-42.667 19.103-42.667 42.667 0 21.881 16.471 39.915 37.691 42.38l5.403 0.287z" />
<glyph unicode="&#xe91a;" glyph-name="filter" d="M803.68 251.067c75.791 0 137.232-63.101 137.232-140.941s-61.441-140.941-137.232-140.941c-62.814 0-115.771 43.342-132.064 102.496l-596.949 0.007c-17.673 0-32 14.327-32 32v12.877c0 17.673 14.327 32 32 32l596.938-0.034c16.28 59.174 69.247 102.537 132.076 102.537zM803.68 174.19c-34.451 0-62.378-28.682-62.378-64.064s27.928-64.064 62.378-64.064c34.451 0 62.378 28.682 62.378 64.064s-27.928 64.064-62.378 64.064zM329.606 584.2c62.814 0 115.771-43.342 132.064-102.496l447.242-0.007c17.673 0 32-14.327 32-32v-12.877c0-17.673-14.327-32-32-32l-447.242-0.008c-16.294-59.153-69.251-102.494-132.064-102.494s-115.77 43.342-132.064 102.494l-122.876 0.008c-17.673 0-32 14.327-32 32v12.877c0 17.673 14.327 32 32 32l122.875 0.007c16.294 59.153 69.251 102.496 132.064 102.496zM329.606 507.323c-34.451 0-62.378-28.682-62.378-64.064s27.928-64.064 62.378-64.064c34.451 0 62.378 28.682 62.378 64.064s-27.928 64.064-62.378 64.064zM803.68 917.333c75.791 0 137.232-63.101 137.232-140.941s-61.441-140.941-137.232-140.941c-62.813 0-115.77 43.342-132.064 102.494l-596.95 0.008c-17.673 0-32 14.327-32 32v12.877c0 17.673 14.327 32 32 32l596.95 0.008c16.294 59.153 69.251 102.494 132.064 102.494zM803.68 840.456c-34.451 0-62.378-28.682-62.378-64.064s27.928-64.064 62.378-64.064c34.451 0 62.378 28.682 62.378 64.064s-27.928 64.064-62.378 64.064z" />
<glyph unicode="&#xe91b;" glyph-name="folder" d="M170.667 864c-64.801 0-117.333-52.532-117.333-117.333v-554.667c0-64.801 52.532-117.333 117.333-117.333h682.667c64.801 0 117.333 52.532 117.333 117.333v554.667c0 64.801-52.532 117.333-117.333 117.333h-170.667c-71.888 0-134.687-37.65-170.667-94.083-35.98 56.434-98.778 94.083-170.667 94.083h-170.667zM170.667 800h170.667l7.833-0.25c72.923-4.079 130.833-64.474 130.833-138.417v-522.667h-309.333c-29.455 0-53.333 23.878-53.333 53.333v554.667c0 29.455 23.878 53.333 53.333 53.333zM682.667 800h170.667c29.455 0 53.333-23.878 53.333-53.333v-554.667c0-29.455-23.878-53.333-53.333-53.333h-309.333v522.667c0 73.943 57.911 134.337 130.833 138.417l7.833 0.25zM181.333 629.333v-64h234.667v64h-234.667zM608 629.333v-64h234.667v64h-234.667zM181.333 480v-64h234.667v64h-234.667zM608 480v-64h234.667v64h-234.667z" />
<glyph unicode="&#xe91c;" glyph-name="free-stamp" d="M260.267 917.333c0-38.4 34.133-72.533 72.533-72.533s72.533 34.133 72.533 72.533h217.6c0-38.4 34.133-72.533 72.533-72.533s72.533 34.133 72.533 72.533h170.667c25.6 0 42.667-17.067 42.667-42.667v-174.933c-38.4 0-68.267-29.867-68.267-68.267 0-34.133 25.6-51.2 68.267-59.733v-230.4c-38.4-4.267-64-38.4-59.733-68.267 0-34.133 25.6-59.733 59.733-64v-187.733c0-25.6-17.067-42.667-42.667-42.667h-174.933c0 38.4-25.6 72.533-64 72.533-29.867 0-55.467-29.867-68.267-72.533h-226.133c0 38.4-34.133 72.533-72.533 72.533s-72.533-34.133-72.533-72.533h-174.933c-25.6 0-42.667 17.067-42.667 42.667v174.933c38.4 0 72.533 34.133 72.533 72.533s-34.133 72.533-72.533 72.533v213.333c38.4 0 72.533 34.133 72.533 72.533s-34.133 72.533-72.533 72.533v174.933c0 25.6 17.067 42.667 42.667 42.667h174.933zM797.867 870.4c-17.067-38.4-59.733-68.267-102.4-68.267s-85.333 25.6-102.4 68.267l-8.533 4.267h-149.333l-4.267-4.267c-12.8-38.4-46.933-64-93.867-68.267h-8.533c-46.933 0-85.333 25.6-102.4 68.267v4.267h-140.8v-140.8l4.267-4.267c38.4-12.8 64-51.2 68.267-93.867v-8.533c0-46.933-25.6-85.333-68.267-102.4l-4.267-4.267v-149.333l4.267-4.267c38.4-12.8 64-46.933 68.267-93.867v-8.533c0-46.933-25.6-85.333-68.267-102.4h-4.267v-140.8h140.8l4.267 4.267c17.067 38.4 55.467 64 98.133 68.267h8.533c46.933 0 85.333-25.6 102.4-68.267l4.267-4.267h149.333l4.267 4.267c17.067 38.4 55.467 64 98.133 68.267h8.533c46.933 0 85.333-25.6 102.4-68.267l4.267-4.267h132.267v145.067l-8.533 8.533c-38.4 17.067-51.2 46.933-55.467 89.6v8.533c0 46.933 17.067 85.333 59.733 102.4v157.867c-51.2 8.533-68.267 42.667-72.533 89.6v8.533c0 46.933 25.6 85.333 68.267 102.4v0 140.8l-136.533-4.267zM512 614.4c8.533 0 17.067-8.533 21.333-17.067v-294.4c0-12.8-8.533-21.333-21.333-21.333-8.533 0-17.067 8.533-21.333 17.067v294.4c0 12.8 8.533 21.333 21.333 21.333zM657.067 469.333c12.8 0 21.333-8.533 21.333-21.333 0-8.533-8.533-17.067-17.067-21.333h-294.4c-12.8 0-21.333 8.533-21.333 21.333 0 8.533 8.533 17.067 17.067 21.333h294.4z" />
<glyph unicode="&#xe91d;" glyph-name="info" d="M512 874.667c235.641 0 426.667-191.025 426.667-426.667s-191.025-426.667-426.667-426.667c-235.641 0-426.667 191.025-426.667 426.667s191.025 426.667 426.667 426.667zM512 810.667c-200.295 0-362.667-162.371-362.667-362.667s162.371-362.667 362.667-362.667c200.295 0 362.667 162.371 362.667 362.667s-162.371 362.667-362.667 362.667zM512 533.333c23.467 0 42.667-19.179 42.667-42.667v-256c0-23.467-19.2-42.667-42.667-42.667s-42.667 19.2-42.667 42.667v256c0 23.488 19.2 42.667 42.667 42.667zM512 682.667c23.467 0 42.667-18.113 42.667-40.252v-4.83c0-20.557-16.555-37.643-37.709-39.979l-4.958-0.272c-23.467 0-42.667 18.113-42.667 40.252v4.83c0 22.138 19.2 40.252 42.667 40.252z" />
<glyph unicode="&#xe91e;" glyph-name="lactose-free" d="M512 908.8c-251.733 0-460.8-209.067-460.8-460.8s209.067-460.8 460.8-460.8 460.8 209.067 460.8 460.8-209.067 460.8-460.8 460.8zM512 840.533c217.6 0 392.533-174.933 392.533-392.533s-174.933-392.533-392.533-392.533-392.533 174.933-392.533 392.533 174.933 392.533 392.533 392.533zM610.133 652.8h-196.267c-17.067 0-29.867-12.8-34.133-25.6l-46.933-196.267c0-4.267-4.267-12.8-4.267-17.067v-221.867c0-42.667 34.133-76.8 76.8-76.8h213.333c42.667 0 76.8 34.133 76.8 76.8v217.6c0 4.267 0 12.8-4.267 17.067l-46.933 196.267c-4.267 17.067-17.067 29.867-34.133 29.867zM439.467 584.533h149.333l42.667-174.933c0 0 0 0 0-4.267v-213.333c0-4.267-4.267-8.533-8.533-8.533h-213.333c-4.267 0-8.533 4.267-8.533 8.533v221.867l38.4 170.667zM576 738.133h-128c-42.667 0-72.533-34.133-72.533-76.8s34.133-76.8 76.8-76.8h128c42.667 0 76.8 34.133 76.8 76.8s-38.4 76.8-81.067 76.8zM448 669.867h128c4.267 0 8.533-4.267 8.533-8.533s-4.267-8.533-8.533-8.533h-128c-4.267 0-8.533 4.267-8.533 8.533s4.267 8.533 8.533 8.533zM648.533 614.4c0 0 110.933 110.933 128 128 17.067-17.067 17.067-17.067 29.867-29.867-51.2-51.2-145.067-145.067-145.067-145.067zM328.533 234.667c0 0-55.467-55.467-81.067-81.067-12.8 8.533-29.867 29.867-29.867 29.867l110.933 110.933v-59.733zM401.067 366.933l192 192 12.8-46.933-204.8-204.8z" />
<glyph unicode="&#xe91f;" glyph-name="options-android" horiz-adv-x="341" d="M170.727 680.001c63.8 0 116 52.2 116 116s-52.2 116-116 116c-63.8 0-116-52.2-116-116s52.2-116 116-116zM170.727 564c-63.8 0-116-52.2-116-116s52.2-116 116-116c63.8 0 116 52.2 116 116s-52.2 116-116 116zM170.727 215.999c-63.8 0-116-52.2-116-116s52.2-116 116-116c63.8 0 116 52.2 116 116s-52.2 116-116 116z" />
<glyph unicode="&#xe920;" glyph-name="options-ios" d="M752.001 448c0 66 54 120 120 120s120-54 120-120c0-66-54-120-120-120s-120 54-120 120zM632 448c0-66-54-120-120-120s-120 54-120 120c0 66 54 120 120 120s120-54 120-120zM271.999 448c0-66-54-120-120-120s-120 54-120 120c0 66 54 120 120 120s120-54 120-120z" />
<glyph unicode="&#xe921;" glyph-name="notification-setting" d="M502 917.25c-114.475 2.426-207.084-100.214-284.833-275.917l-11.833-27.667-11.583-28.667-11.417-29.833c-28.21-75.921-52.284-157.076-72.333-238.167l-7.917-33-7-30.833-8.583-41.5c-0.228-1.189-0.411-2.234-0.583-3.167-3.641-19.672 11.411-37.833 31.417-37.833h768c20.090 0 35.2 18.269 31.417 38l-5.75 28.583-7.25 32.25-5.667 24.167-10 39.917c-20.885 80.835-45.668 160.638-74.333 234.667-15.522 40.086-31.637 77.302-48.417 111.25l-12.667 24.833c-68.452 129.305-147.686 206.152-241.75 212.583l-8.917 0.333zM500.667 853.333c91.318-1.935 178.966-115.894 253.417-308.167 23.585-60.909 43.925-126.55 62.167-193.167h-630.333c16.652 61.827 34.973 123.122 56.417 180.833 5.518 14.85 11.084 29.309 16.75 43.25l11.5 27.25c5.761 13.319 11.521 26.139 17.417 38.5l11.917 24.083c59.803 117.053 125.823 184.46 193.917 187.333l6.833 0.083zM168.917 288h664.667l6.25-25.917 6.167-27.417h-689.417l4.333 19.5c2.416 10.688 5.225 22.325 8 33.833zM560.099 92.411c9.843 14.678 29.722 18.597 44.4 8.754s18.597-29.722 8.754-44.4c-23.786-35.469-66.385-56.692-111.91-56.692s-88.125 21.224-111.91 56.692c-9.843 14.678-5.924 34.557 8.754 44.4 13.344 8.949 30.985 6.523 41.478-5.020l2.922-3.734c11.511-17.165 33.937-28.338 58.756-28.338 22.563 0 43.148 9.234 55.353 23.809z" />
<glyph unicode="&#xe922;" glyph-name="light-bulb" d="M76.833 893.333c-7.467-0.533-14.933-3.767-21.333-10.167-12.8-12.8-12.8-34.133 0-42.667l85.333-85.333v-4.25c12.8-8.533 29.867-8.55 42.667 4.25s12.8 34.2 0 47l-81.083 81-4.25 4.333c-6.4 4.267-13.867 6.367-21.333 5.833zM947.167 893.333c-7.467 0.533-14.933-1.567-21.333-5.833l-4.25-4.333-81.083-81c-12.8-12.8-12.8-34.2 0-47s29.867-12.783 42.667-4.25l4.333 4.25 81 81.083c12.8 12.8 12.8 34.117 0 46.917-6.4 6.4-13.867 9.633-21.333 10.167zM512 878.917c-196.267 0-349.833-157.833-349.833-349.833 0-138.737 82.588-259.326 200.75-315.75l-3.266 12.337-1.234-97.671v-8.5c0-64 51.167-111 115.167-111h72.583c64 0 110.917 51.25 110.917 115.25l-1.233 107.541-3.516-22.207c122.872 54.518 209.5 177.829 209.5 320 0 192-153.567 349.833-349.834 349.833zM512 814.917c157.867 0 290.167-132.217 290.167-290.083 0-119.442-73.359-221.672-179.25-264.417v162h4.25c59.733 12.8 98.167 42.667 119.5 85.333l4.25 8.5c25.6 59.733-8.5 123.75-72.5 123.75-68.267 0-106.717-55.467-115.25-149.333v-8.5l-8.5-4.333h-72.5v8.583c-8.533 93.867-46.983 149.333-115.25 149.333-64 0-98.083-64.033-76.75-119.5l4.25-8.5c21.333-42.667 59.683-72.533 119.417-85.333h4.333v-168.583c-114.984 37.293-196.333 141.857-196.333 271 0 162.133 132.3 290.083 290.167 290.083zM366.917 571.75c25.6 0 42.717-25.617 51.25-81.083v-4.25h-4.333c-34.133 12.8-55.467 29.833-64 51.167s0.017 34.167 17.083 34.167zM678.417 571.75c12.8 0 21.283-12.833 12.75-34.167s-29.867-38.367-64-51.167h-4.25v4.25c12.8 55.467 29.9 81.083 55.5 81.083zM486.417 413.833h72.5v-170.917c-15.284-2.412-30.874-4-46.917-4-8.641 0-17.151 0.477-25.583 1.167zM162.167 308.833c-7.467 0.533-14.933-1.65-21.333-5.917l-4.333-4.25-81-81.083c-12.8-17.067-12.8-38.383 0-46.917 12.8-12.8 29.867-12.783 42.667-4.25l85.333 85.333c12.8 12.8 12.8 34.117 0 46.917-6.4 6.4-13.867 9.633-21.333 10.167zM861.833 308.833c-7.467-0.533-14.933-3.767-21.333-10.167-12.8-12.8-12.8-34.117 0-46.917l85.333-85.333c12.8-8.533 29.867-8.55 42.667 4.25 12.8 8.533 12.8 29.85 0 46.917l-81 81.083-4.333 4.25c-6.4 4.267-13.867 6.45-21.333 5.917zM426.667 190.25c27.392-6.981 55.888-11.083 85.333-11.083 27.92 0 54.988 3.702 81.083 10v-69.667c0-25.6-25.65-47-51.25-47h-68.25c-25.6 0-46.917 25.65-46.917 51.25z" />
<glyph unicode="&#xe923;" glyph-name="like" d="M721.931 906.386c-69.731-3.171-135.913-33.128-185.328-84.142l-24.646-25.359-24.59 25.365c-109.048 112.522-286.277 112.522-395.324 0-108.502-111.96-108.502-293.078 0-405.038l366.326-378c28.698-29.613 75.969-30.354 105.582-1.656l367.982 379.655c52.152 53.788 81.401 126.627 81.401 202.519s-29.249 148.731-81.406 202.524c-52.312 54.004-123.431 84.411-197.657 84.411l-12.34-0.28zM734.271 842.667c56.821 0 111.378-23.326 151.698-64.951 40.54-41.812 63.365-98.653 63.365-157.985s-22.825-116.173-63.354-157.974l-366.925-378.593c-3.873-3.748-10.626-3.642-14.725 0.589l-366.326 378c-84.447 87.138-84.447 228.821 0 315.959 83.902 86.575 219.505 86.575 303.407 0l70.579-72.828 70.579 72.828c40.326 41.63 94.883 64.956 151.703 64.956z" />
<glyph unicode="&#xe924;" glyph-name="location" d="M519.758 906.667c-210.471 0-381.091-170.62-381.091-381.091 0-128.679 69.131-255.42 183.315-375.947 39.288-41.471 81.287-79.27 123.297-112.722l10.844-8.535 20.403-15.501 20.694-14.895 4.787-3.268c10.749-7.166 24.752-7.166 35.501 0l15.985 11.214 9.496 6.949 20.403 15.501c3.547 2.759 7.163 5.604 10.844 8.535 42.010 33.452 84.009 71.251 123.297 112.722 114.184 120.527 183.315 247.268 183.315 375.947 0 210.471-170.62 381.091-381.091 381.091zM519.758 842.667c175.124 0 317.091-141.966 317.091-317.091 0-108.897-61.778-222.156-165.776-331.932-37.075-39.135-76.895-74.972-116.703-106.672l-10.239-8.060-9.826-7.554-14.582-10.815-14.512 10.815c-6.406 4.865-13.108 10.074-20.065 15.614-39.809 31.699-79.628 67.537-116.703 106.672-103.998 109.776-165.776 223.035-165.776 331.932 0 175.124 141.966 317.091 317.091 317.091zM519.758 712.727c-103.361 0-187.152-83.791-187.152-187.152s83.791-187.152 187.152-187.152c103.361 0 187.152 83.791 187.152 187.152s-83.791 187.152-187.152 187.152zM519.758 648.727c68.015 0 123.152-55.137 123.152-123.152s-55.137-123.152-123.152-123.152c-68.015 0-123.152 55.137-123.152 123.152s55.137 123.152 123.152 123.152z" />
<glyph unicode="&#xe925;" glyph-name="loyalty" d="M170.667 917.333c0-34.133 25.6-59.733 59.733-59.733s59.733 25.6 59.733 59.733h72.533c0-34.133 25.6-59.733 59.733-59.733s59.733 25.6 59.733 59.733h68.267c0-34.133 25.6-59.733 59.733-59.733s59.733 25.6 59.733 59.733h72.533c0-34.133 25.6-59.733 59.733-59.733s51.2 25.6 51.2 59.733h68.267c0-34.133 25.6-59.733 59.733-59.733v-68.267c-34.133 0-55.467-21.333-55.467-55.467s21.333-64 55.467-64v-72.533c-34.133 0-55.467-21.333-55.467-55.467s21.333-64 55.467-64v-68.267c-34.133 0-55.467-21.333-55.467-55.467s21.333-64 55.467-64v-72.533c-34.133 0-59.733-17.067-59.733-51.2s25.6-59.733 59.733-59.733v-68.267c-34.133 0-59.733-25.6-59.733-59.733h-68.267c0 34.133-25.6 59.733-59.733 59.733s-59.733-25.6-59.733-59.733h-72.533c0 34.133-25.6 59.733-59.733 59.733s-59.733-25.6-59.733-59.733h-68.267c0 34.133-25.6 59.733-59.733 59.733s-55.467-25.6-55.467-59.733h-68.267c0 34.133-25.6 59.733-59.733 59.733s-59.733-25.6-59.733-59.733h-68.267c0 34.133-25.6 59.733-59.733 59.733v68.267c34.133 0 59.733 25.6 59.733 59.733s-25.6 59.733-59.733 59.733v72.533c34.133 0 59.733 25.6 59.733 59.733s-25.6 55.467-59.733 55.467v68.267c34.133 0 59.733 25.6 59.733 59.733s-25.6 59.733-59.733 59.733v68.267c34.133 0 59.733 25.6 59.733 59.733s-25.6 59.733-59.733 59.733v68.267c34.133 0 59.733 25.6 59.733 59.733 0 0 68.267 0 68.267 0zM887.467 840.533v0c-25.6-29.867-55.467-42.667-93.867-42.667s-68.267 17.067-89.6 42.667l-4.267 4.267-4.267-4.267c-21.333-21.333-51.2-38.4-85.333-42.667h-8.533c-38.4 0-68.267 17.067-89.6 42.667v0l-4.267-4.267c-21.333-21.333-51.2-38.4-85.333-42.667h-8.533c-38.4 0-68.267 17.067-89.6 42.667v4.267l-4.267-4.267c-21.333-21.333-51.2-38.4-85.333-42.667h-8.533c-38.4 0-68.267 17.067-89.6 42.667v4.267l-4.267-4.267c0-4.267-4.267-8.533-8.533-8.533l-4.267-4.267 4.267-4.267c21.333-21.333 38.4-51.2 42.667-85.333v-8.533c0-38.4-17.067-68.267-42.667-89.6h-4.267l4.267-4.267c21.333-21.333 38.4-51.2 42.667-85.333v-8.533c0-38.4-17.067-68.267-42.667-89.6h-4.267l4.267-4.267c21.333-21.333 38.4-51.2 42.667-85.333v-8.533c0-38.4-17.067-68.267-42.667-89.6l-4.267-4.267 4.267-4.267c21.333-21.333 38.4-51.2 42.667-85.333v-8.533c0-38.4-17.067-68.267-42.667-89.6l-4.267-4.267 4.267-4.267c4.267 8.533 8.533 4.267 8.533 0l4.267-4.267 4.267 4.267c21.333 21.333 51.2 38.4 85.333 42.667h8.533c38.4 0 68.267-17.067 89.6-42.667l4.267-4.267 4.267 4.267c21.333 21.333 51.2 38.4 85.333 42.667h8.533c38.4 0 68.267-17.067 89.6-42.667l4.267-4.267 4.267 4.267c21.333 21.333 51.2 38.4 85.333 42.667h8.533c38.4 0 68.267-17.067 89.6-42.667l4.267-4.267 4.267 4.267c21.333 21.333 51.2 38.4 85.333 42.667h8.533c38.4 0 68.267-17.067 89.6-42.667v0c4.267 4.267 4.267 8.533 8.533 8.533l4.267 4.267-4.267 4.267c-42.667 25.6-42.667 59.733-46.933 93.867v0c0 38.4 21.333 68.267 46.933 89.6l4.267 4.267-4.267 4.267c-21.333 21.333-38.4 46.933-42.667 81.067v8.533c0 38.4 21.333 72.533 46.933 93.867l4.267 4.267-4.267 4.267c-29.867 12.8-38.4 42.667-42.667 85.333v8.533c0 38.4 17.067 68.267 42.667 89.6l4.267 4.267-4.267 4.267c-25.6 17.067-42.667 46.933-42.667 85.333v8.533c0 38.4 17.067 68.267 42.667 89.6l8.533 8.533c-25.6 4.267-34.133-4.267-34.133-4.267v0zM704 712.533h-384c-42.667 0-76.8-34.133-76.8-76.8v-384c0-42.667 34.133-76.8 76.8-76.8h384c42.667 0 76.8 34.133 76.8 76.8v384c-4.267 46.933-34.133 76.8-76.8 76.8zM320 652.8h384c4.267 0 8.533-4.267 8.533-8.533v-384c0-4.267-4.267-8.533-8.533-8.533h-384c-4.267 0-8.533 4.267-8.533 8.533v384c-4.267 0 4.267 8.533 8.533 8.533z" />
<glyph unicode="&#xe926;" glyph-name="lunch" d="M921.6 256v-93.867c0-51.2-38.4-93.867-89.6-93.867v0h-661.333c-46.933 0-89.6 42.667-89.6 93.867v0 93.867h840.533zM866.133 192h-725.333v-29.867c0-17.067 12.8-29.867 25.6-29.867v0h669.867c17.067 0 29.867 12.8 29.867 29.867v0 29.867zM934.4 358.4c17.067 0 29.867-12.8 29.867-29.867s-12.8-29.867-25.6-29.867h-4.267l-861.867-4.267c-17.067 0-29.867 12.8-29.867 29.867s12.8 29.867 25.6 29.867h4.267l861.867 4.267zM503.467 832c12.8 0 25.6-12.8 29.867-25.6v-179.2c34.133-4.267 64-17.067 89.6-34.133 34.133 21.333 72.533 34.133 110.933 34.133 93.867 0 174.933-68.267 192-162.133 0-4.267 0-4.267 0-8.533v-55.467h-844.8v29.867c0 106.667 85.333 196.267 192 196.267 42.667 0 85.333-12.8 119.467-38.4 25.6 17.067 51.2 29.867 81.067 38.4v179.2c0 12.8 12.8 25.6 29.867 25.6zM507.733 563.2c-25.6 0-55.467-8.533-76.8-21.333 4.267-8.533 8.533-12.8 12.8-21.333l4.267-8.533-51.2-25.6c-21.333 46.933-68.267 76.8-123.733 76.8-64 0-115.2-42.667-128-98.133v-4.267h716.8c-12.8 59.733-68.267 102.4-132.267 102.4-25.6 0-46.933-4.267-64-17.067 4.267-8.533 12.8-17.067 17.067-25.6l4.267-8.533-51.2-25.6c-25.6 46.933-72.533 76.8-128 76.8z" />
<glyph unicode="&#xe927;" glyph-name="main-dish" d="M426.667 917.333h4.267l217.6-29.867c38.4-4.267 68.267-42.667 64-85.333v-8.533l-4.267-34.133 187.733-25.6c51.2-8.533 89.6-55.467 85.333-110.933v-4.267c-4.267-42.667-38.4-76.8-72.533-85.333v-426.667c0-68.267-51.2-123.733-115.2-128h-537.6c-64 0-115.2 51.2-119.467 119.467v422.4c0 17.067 12.8 34.133 34.133 34.133 17.067 0 29.867-12.8 34.133-29.867v-418.133c0-29.867 21.333-55.467 51.2-55.467h533.333c29.867 0 51.2 21.333 55.467 51.2v430.933l-716.8 98.133c-51.2 8.533-89.6 55.467-85.333 110.933v8.533c8.533 55.467 59.733 98.133 110.933 89.6v0l187.733-29.867 4.267 34.133c4.267 42.667 42.667 72.533 81.067 72.533zM145.067 768c-17.067 4.267-34.133-8.533-34.133-29.867-4.267-17.067 8.533-34.133 25.6-38.4v0l742.4-102.4c17.067-4.267 34.133 12.8 38.4 29.867s-8.533 38.4-29.867 38.4v0l-742.4 102.4zM409.6 840.533v0l-4.267-38.4 238.933-34.133 4.267 34.133c0 4.267-4.267 8.533-8.533 12.8h-4.267l-213.333 34.133c-4.267 0-8.533-4.267-12.8-8.533z" />
<glyph unicode="&#xe928;" glyph-name="next-arrow" d="M539.849 691.885c-13.672-13.672-15.191-34.894-4.557-50.244l4.557-5.455 278.491-278.491c13.672-13.672 15.191-34.894 4.557-50.244l-4.557-5.455-278.491-278.491c-15.381-15.381-15.381-40.318 0-55.698 13.672-13.672 34.894-15.191 50.244-4.557l5.455 4.557 278.491 278.491c43.428 43.428 45.982 112.251 7.664 158.666l-7.664 8.429-278.491 278.491c-15.381 15.381-40.318 15.381-55.698 0zM827.077 290.462c21.752 0 39.385 17.633 39.385 39.385 0 19.335-13.932 35.415-32.305 38.75l-7.079 0.635h-630.154c-19.335 0-35.415 13.932-38.75 32.305l-0.635 7.079v472.615c0 21.752-17.633 39.385-39.385 39.385-19.335 0-35.415-13.932-38.75-32.305l-0.635-7.079v-472.615c0-61.416 46.859-111.888 106.775-117.613l11.379-0.541h630.154z" />
<glyph unicode="&#xe929;" glyph-name="no-delivery" d="M964.267 499.2c4.267-8.533 8.533-17.067 8.533-29.867v-234.667c0-17.067-12.8-29.867-25.6-29.867h-149.333c4.267 25.6 4.267 42.667 0 64 21.333 0 106.667 0 106.667 0v196.267c0 0 0 0 0 4.267v4.267l-89.6 157.867c0 0 34.133 42.667 46.933 55.467zM567.467 268.8c-8.533-25.6-4.267-46.933 0-64-25.6 0-106.667 0-106.667 0l51.2 64c0 0 42.667 0 55.467 0zM640 819.2c21.333 0 46.933-8.533 59.733-25.6-12.8-12.8-51.2-59.733-51.2-59.733v12.8c0 4.267-4.267 8.533-8.533 8.533h-426.667c-51.2 0-93.867-38.4-93.867-89.6v-392.533c0-4.267 4.267-8.533 8.533-8.533h4.267c0 0 38.4 0 51.2 0-4.267-25.6-4.267-46.933 0-64-12.8 0-55.467 0-55.467 0-38.4 0-72.533 29.867-72.533 68.267v392.533c0 85.333 68.267 153.6 153.6 157.867h430.933zM298.667 354.133c-64 0-119.467-51.2-119.467-119.467 0-17.067 4.267-38.4 12.8-55.467 4.267 4.267 51.2 59.733 51.2 59.733s0 12.8 12.8 29.867c4.267 8.533 8.533 8.533 21.333 12.8 12.8 12.8 51.2 64 55.467 68.267-12.8 4.267-21.333 4.267-34.133 4.267zM682.667 354.133c-64 0-119.467-51.2-119.467-119.467s51.2-119.467 119.467-119.467 119.467 51.2 119.467 119.467-55.467 119.467-119.467 119.467zM682.667 285.867c29.867 0 51.2-25.6 51.2-51.2s-25.6-51.2-51.2-51.2c-29.867 0-51.2 25.6-51.2 51.2s21.333 51.2 51.2 51.2zM870.4 891.733c17.067 8.533 21.333 4.267 34.133-4.267s12.8-12.8 12.8-25.6c-4.267-17.067-17.067-21.333-25.6-34.133l-12.8-17.067-580.267-699.733c-12.8-12.8-17.067-25.6-38.4-46.933-17.067 0-25.6 0-38.4 8.533-12.8 12.8-8.533 12.8-8.533 29.867 12.8 17.067 21.333 25.6 29.867 38.4l12.8 17.067 584.533 699.733c8.533 12.8 17.067 21.333 29.867 34.133zM712.533 507.733c0 0 0-132.267 0-157.867-12.8 4.267-34.133 8.533-64 0 0 17.067 0 81.067 0 81.067l64 76.8z" />
<glyph unicode="&#xe92a;" glyph-name="inbox" d="M853.333 821.333h-682.667c-64.606 0-117.333-52.727-117.333-117.333v-512c0-64.606 52.727-117.333 117.333-117.333h682.667c64.606 0 117.333 52.727 117.333 117.333v512c0 64.606-52.727 117.333-117.333 117.333zM170.667 757.333h682.667c29.26 0 53.333-24.073 53.333-53.333v-512c0-29.26-24.073-53.333-53.333-53.333h-682.667c-29.26 0-53.333 24.073-53.333 53.333v512c0 29.26 24.073 53.333 53.333 53.333zM794.82 646.038c15.354 8.752 34.896 3.399 43.647-11.955 8.022-14.075 4.193-31.668-8.327-41.243l-3.628-2.404-298.667-170.237c-8.419-4.799-18.474-5.484-27.361-2.056l-4.333 2.057-298.643 170.237c-15.354 8.752-20.705 28.294-11.953 43.648 8.023 14.074 25.112 19.744 39.731 13.85l3.917-1.897 282.753-161.173 282.863 161.174z" />
<glyph unicode="&#xe92b;" glyph-name="previous-purchases" d="M360.013 810.667c16.859 0-156.273-100.247-149.412-124.089 12.053-41.883 201.517-18.071 246.722-18.071v0h303.683c22.655 0 48.498 103.244 63.269 88.472 1.691-1.691 3.458-3.458 5.302-5.302l11.988-11.988c6.455-6.455 13.602-13.602 21.44-21.44l16.599-16.599c8.76-8.76 18.213-18.213 28.356-28.356 6.001-6.001 9.373-14.14 9.373-22.627v0-554.667c0-3.439-0.554-6.856-1.642-10.119-24.54-73.619-167.827-112.459-355.195-117.359v0l-28.427-0.481c-9.58-0.075-19.26-0.066-29.032 0.028-199.719 1.921-365.438 39.843-412.33 110.181-3.504 5.257-5.374 11.433-5.374 17.75v0 554.667c0 8.487 3.371 16.626 9.373 22.627v0l128 128c6.001 6.001 14.14 9.373 22.627 9.373v0zM149.333 637.44v-530.304l0.766-0.834c39.772-40.382 177.045-70.786 338.784-74.018v0l14.769-0.218c29.144-0.28 57.526 0.362 84.71 1.803v0l26.769 1.703 25.873 2.209c4.232 0.409 8.423 0.837 12.571 1.285v0l24.349 2.915c15.865 2.092 30.971 4.476 45.191 7.115v0l20.648 4.145c56.528 12.259 95.872 28.794 108.133 46.805v0l1.435 2.44v534.912l-704 0.043zM771.556 917.333c31.901 0 57.296-25.198 60.173-56.533l0.272-5.943v-182.857h-64v181.333h-277.333v-53.333h-64v54.857c0 32.028 23.518 59.11 54.543 62.186l5.901 0.291h284.444zM394.667 832c118.149 0 218.134-64.406 223.751-152.194l0.249-7.806h-64c0 49.636-69.546 96-160 96-87.334 0-155.179-43.222-159.754-90.879l-0.246-5.121h-64c0 91.749 102.376 160 224 160zM128 682.667h768v-42.667h-768v42.667z" />
<glyph unicode="&#xe92c;" glyph-name="voice-search" horiz-adv-x="683" d="M341.333 949.333c-87.987 0-160-72.013-160-160v-341.333c0-87.987 72.013-160 160-160s160 72.013 160 160v341.333c0 87.987-72.013 160-160 160zM341.333 885.333c53.398 0 96-42.602 96-96v-341.333c0-53.398-42.602-96-96-96s-96 42.602-96 96v341.333c0 53.398 42.602 96 96 96zM42.667 565.333c-17.673 0-32-14.327-32-32v0-85.333c0-182.243 148.424-330.667 330.667-330.667s330.667 148.424 330.667 330.667v85.333c0 17.673-14.327 32-32 32v0c-17.673 0-32-14.327-32-32v0-85.333c0-147.655-119.012-266.667-266.667-266.667s-266.667 119.012-266.667 266.667v85.333c0 17.673-14.327 32-32 32v0zM341.333 181.333c-17.673 0-32-14.327-32-32v0-170.667c0-17.673 14.327-32 32-32v0c17.673 0 32 14.327 32 32v0 170.667c0 17.673-14.327 32-32 32v0zM170.667 10.667c-17.673 0-32-14.327-32-32v0c0-17.673 14.327-32 32-32v0h341.333c17.673 0 32 14.327 32 32v0c0 17.673-14.327 32-32 32v0z" />
<glyph unicode="&#xe92d;" glyph-name="flashlight" d="M512 96c16.2 0 29.589-12.039 31.708-27.658l0.292-4.342v-85.333c0-17.673-14.327-32-32-32-16.2 0-29.589 12.039-31.708 27.658l-0.292 4.342v85.333c0 17.673 14.327 32 32 32zM802.398 202.366l3.589-3.098 60.587-60.587c12.497-12.497 12.497-32.758 0-45.255-11.361-11.361-29.138-12.393-41.666-3.098l-3.589 3.098-60.587 60.587c-12.497 12.497-12.497 32.758 0 45.255 11.361 11.361 29.138 12.393 41.666 3.098zM263.267 199.267c11.361-11.361 12.393-29.138 3.098-41.666l-3.098-3.589-60.587-60.587c-12.497-12.497-32.758-12.497-45.255 0-11.361 11.361-12.393 29.138-3.098 41.666l3.098 3.589 60.587 60.587c12.497 12.497 32.758 12.497 45.255 0zM512 693.333c135.494 0 245.333-109.839 245.333-245.333s-109.839-245.333-245.333-245.333c-135.494 0-245.333 109.839-245.333 245.333s109.839 245.333 245.333 245.333zM512 629.333c-100.148 0-181.333-81.186-181.333-181.333s81.186-181.333 181.333-181.333c100.148 0 181.333 81.186 181.333 181.333s-81.186 181.333-181.333 181.333zM128 480c17.673 0 32-14.327 32-32 0-16.2-12.039-29.589-27.658-31.708l-4.342-0.292h-85.333c-17.673 0-32 14.327-32 32 0 16.2 12.039 29.589 27.658 31.708l4.342 0.292h85.333zM981.333 480c17.673 0 32-14.327 32-32 0-16.2-12.039-29.589-27.658-31.708l-4.342-0.292h-85.333c-17.673 0-32 14.327-32 32 0 16.2 12.039 29.589 27.658 31.708l4.342 0.292h85.333zM199.092 805.672l3.589-3.098 60.587-60.587c12.497-12.497 12.497-32.758 0-45.255-11.361-11.361-29.138-12.393-41.666-3.098l-3.589 3.098-60.587 60.587c-12.497 12.497-12.497 32.758 0 45.255 11.361 11.361 29.138 12.393 41.666 3.098zM866.574 802.574c11.361-11.361 12.393-29.138 3.098-41.666l-3.098-3.589-60.587-60.587c-12.497-12.497-32.758-12.497-45.255 0-11.361 11.361-12.393 29.138-3.098 41.666l3.098 3.589 60.587 60.587c12.497 12.497 32.758 12.497 45.255 0zM512 949.333c16.2 0 29.589-12.039 31.708-27.658l0.292-4.342v-85.333c0-17.673-14.327-32-32-32-16.2 0-29.589 12.039-31.708 27.658l-0.292 4.342v85.333c0 17.673 14.327 32 32 32z" />
<glyph unicode="&#xe92e;" glyph-name="settings" d="M593.195 885.333c26.069 0 48.384-19.115 51.541-44.501l12.843-89.984 9.387-4.608c8.619-4.48 17.024-9.387 25.259-14.635l9.131-6.144 85.589 34.304c22.016 8.021 47.36 0.512 60.544-18.389l2.816-4.565 81.493-140.928c12.203-22.443 6.955-50.517-13.269-66.475l-71.595-55.936 0.427-4.608 0.555-10.496 0.213-10.368c0-6.955-0.256-13.739-0.768-20.907l-0.427-4.523 71.68-56.064c18.603-14.635 24.491-39.68 15.36-61.653l-2.56-5.419-80.725-139.52c-12.587-23.125-40.149-32.939-64.725-23.296l-84.736 34.005-9.813-6.528c-8.277-5.333-16.64-10.155-25.088-14.592l-8.704-4.309-12.8-89.472c-3.029-24.235-22.656-42.496-46.507-44.8l-5.12-0.256h-162.133c-26.069 0-48.384 19.115-51.541 44.501l-12.928 90.027-9.301 4.565c-8.619 4.48-17.067 9.387-25.301 14.635l-9.131 6.187-85.547-34.347c-22.059-8.021-47.36-0.512-60.587 18.389l-2.773 4.565-81.493 140.928c-12.203 22.443-6.955 50.517 13.227 66.475l71.595 55.979-0.384 4.565-0.597 10.581-0.171 10.283c0 6.827 0.256 13.653 0.768 20.907l0.384 4.565-71.68 56.021c-18.859 14.891-25.088 40.619-15.275 62.165l2.56 4.907 80.64 139.52c12.629 23.125 40.192 32.939 64.768 23.296l84.693-33.963 9.813 6.485c8.32 5.333 16.64 10.155 25.131 14.592l8.661 4.309 12.843 89.472c3.029 24.235 22.656 42.496 46.464 44.8l5.12 0.256zM582.869 821.333h-141.525l-13.867-96.981c-1.408-9.643-7.040-18.005-15.232-22.912l-4.309-2.133c-20.736-8.533-41.003-20.395-61.44-35.712-8.96-6.741-20.736-8.277-31.147-4.096l-91.051 36.608-70.912-122.709 77.269-60.459c7.595-5.973 12.075-14.933 12.288-24.405l-0.213-4.779c-1.707-13.781-2.603-25.173-2.603-35.755s0.853-21.973 2.56-35.755c1.408-11.179-3.157-22.229-12.032-29.184l-77.269-60.416 70.869-122.667 91.093 36.523c9.003 3.627 19.072 2.944 27.435-1.707l4.011-2.603c19.285-14.848 39.552-26.624 61.141-35.499 10.496-4.267 17.92-13.824 19.541-25.045l13.867-96.981h141.483l13.952 96.981c1.365 9.643 7.040 18.005 15.232 22.912l4.267 2.133c20.779 8.533 41.045 20.395 61.44 35.755 8.96 6.699 20.779 8.235 31.147 4.053l91.051-36.565 70.912 122.709-77.227 60.416c-7.637 5.973-12.075 14.933-12.288 24.405l0.213 4.779c1.749 14.037 2.56 24.917 2.56 35.755s-0.811 21.76-2.56 35.755c-1.408 11.179 3.2 22.229 12.032 29.184l77.269 60.459-70.912 122.667-91.051-36.565c-8.96-3.627-19.072-2.944-27.392 1.707l-4.011 2.603c-19.285 14.848-39.552 26.624-61.141 35.499-10.496 4.267-17.92 13.824-19.541 25.045l-13.909 96.981zM512 629.333c100.011 0 181.333-81.323 181.333-181.333s-81.323-181.333-181.333-181.333c-100.011 0-181.333 81.323-181.333 181.333s81.323 181.333 181.333 181.333zM512 565.333c-64.683 0-117.333-52.651-117.333-117.333s52.651-117.333 117.333-117.333 117.333 52.651 117.333 117.333-52.651 117.333-117.333 117.333z" />
<glyph unicode="&#xe92f;" glyph-name="no-pick-up" d="M354.133 81.067h401.067c42.667 0 76.8 34.133 76.8 76.8v430.933c0 0-8.533-17.067-29.867-17.067-8.533 0-34.133 0-34.133 0v-413.867c0-4.267-4.267-12.8-12.8-12.8h-345.6l-55.467-64zM153.6 640l85.333 110.933h422.4l55.467 68.267h-494.933c-8.533 0-21.333-4.267-25.6-12.8l-119.467-157.867c0 0-8.533-12.8-17.067-21.333 8.533 8.533 12.8 12.8 29.867 12.8 29.867 0 64 0 64 0zM960 759.467c12.8 17.067 12.8 29.867 12.8 29.867v-430.933c0-34.133-8.533-64-25.6-89.6l-8.533-8.533-106.667-145.067c-8.533-8.533-25.6-29.867-72.533-34.133 21.333 0 51.2 17.067 64 38.4 12.8 25.6 8.533 38.4 8.533 68.267 0 12.8 0 25.6 0 38.4 4.267 4.267 55.467 76.8 55.467 76.8 12.8 17.067 17.067 34.133 21.333 51.2v341.333c12.8 17.067 38.4 46.933 51.2 64zM362.667 392.533h-8.533c-17.067 0-34.133 17.067-34.133 34.133s12.8 29.867 29.867 34.133h72.533l-59.733-68.267zM849.067 870.4c17.067 8.533 21.333 4.267 34.133-4.267s12.8-12.8 12.8-25.6c-4.267-17.067-17.067-21.333-25.6-34.133l-12.8-17.067-576-695.467c-12.8-12.8-17.067-25.6-38.4-46.933-21.333-4.267-25.6-4.267-38.4 4.267-12.8 12.8-12.8 17.067-12.8 29.867 12.8 21.333 21.333 25.6 29.867 38.4l12.8 17.067 584.533 704c8.533 12.8 17.067 21.333 29.867 29.867zM571.733 640h-486.4c-17.067 0-34.133-17.067-34.133-34.133v-448c0-42.667 34.133-76.8 76.8-76.8 0 0 4.267 12.8 12.8 29.867 4.267 8.533 17.067 29.867 17.067 29.867h-25.6l-8.533 8.533c-4.267 4.267-4.267 4.267-4.267 12.8v409.6h392.533l59.733 68.267zM763.733 571.733h38.4c8.533 0 21.333 4.267 25.6 12.8l132.267 179.2c17.067 17.067 17.067 34.133-4.267 51.2-4.267 4.267-192-243.2-192-243.2zM913.067 750.933l-93.867-110.933z" />
<glyph unicode="&#xe930;" glyph-name="check-circle" d="M512 874.667c-235.52 0-426.667-191.147-426.667-426.667s191.147-426.667 426.667-426.667 426.667 191.147 426.667 426.667-191.147 426.667-426.667 426.667zM396.373 264.96l-153.173 153.173c-16.64 16.64-16.64 43.52 0 60.16s43.52 16.64 60.16 0l123.307-122.88 293.547 293.547c16.64 16.64 43.52 16.64 60.16 0s16.64-43.52 0-60.16l-323.84-323.84c-16.213-16.64-43.52-16.64-60.16 0z" />
<glyph unicode="&#xe931;" glyph-name="error-circle" d="M512 874.667c-235.52 0-426.667-191.147-426.667-426.667s191.147-426.667 426.667-426.667 426.667 191.147 426.667 426.667-191.147 426.667-426.667 426.667zM512 405.333c-23.467 0-42.667 19.2-42.667 42.667v170.667c0 23.467 19.2 42.667 42.667 42.667s42.667-19.2 42.667-42.667v-170.667c0-23.467-19.2-42.667-42.667-42.667zM554.667 234.667h-85.333v85.333h85.333v-85.333z" />
<glyph unicode="&#xe932;" glyph-name="calendar" d="M810.667 789.333h-42.667v42.667c0 23.467-19.2 42.667-42.667 42.667s-42.667-19.2-42.667-42.667v-42.667h-341.333v42.667c0 23.467-19.2 42.667-42.667 42.667s-42.667-19.2-42.667-42.667v-42.667h-42.667c-47.36 0-84.907-38.4-84.907-85.333l-0.427-597.333c0-46.933 37.973-85.333 85.333-85.333h597.333c46.933 0 85.333 38.4 85.333 85.333v597.333c0 46.933-38.4 85.333-85.333 85.333zM832 128c0-23.467-20.565-42.667-45.696-42.667h-548.651c-25.131 0-45.696 19.2-45.696 42.667v426.667h640v-426.667zM831.957 682.667v-64h-640v64c0 23.467 20.565 42.667 45.696 42.667h548.651c25.131 0 45.696-19.2 45.696-42.667zM298.667 490.667v-85.333h85.333v85.333h-85.333zM469.333 490.667v-85.333h85.333v85.333h-85.333zM640 490.667v-85.333h85.333v85.333h-85.333z" />
<glyph unicode="&#xe933;" glyph-name="warning" d="M554.752 824.661c12.976-7.594 23.494-18.098 30.886-30.662l0.218-0.4 344.405-594.901c7.218-12.26 11.482-27.008 11.482-42.752 0-47.128-38.205-85.333-85.333-85.333-0.002 0-0.003 0-0.005 0h-688.81c-0.001 0-0.003 0-0.004 0-47.128 0-85.333 38.205-85.333 85.333 0 15.744 4.264 30.492 11.7 43.153l-0.218-0.401 344.405 594.901c15.044 25.624 42.463 42.555 73.836 42.555 15.752 0 30.507-4.268 43.172-11.711l-0.401 0.218zM512 272.043l-4.864-0.256c-22.357-2.304-39.893-20.267-39.893-41.984v-5.035c0-23.253 20.139-42.24 44.757-42.24s44.757 18.987 44.757 42.24v5.035c0 23.253-20.139 42.24-44.8 42.24zM512 607.829c-24.619 0-44.8-15.147-44.8-33.621v-201.429c0-18.475 20.181-33.579 44.8-33.579s44.757 15.104 44.757 33.579v201.429c0 18.475-20.139 33.579-44.8 33.579z" />
<glyph unicode="&#xe934;" glyph-name="info-circle" d="M512 874.667c235.648 0 426.667-191.019 426.667-426.667s-191.019-426.667-426.667-426.667-426.667 191.019-426.667 426.667 191.019 426.667 426.667 426.667zM512 512c-21.888 0-39.936-16.469-42.368-37.675l-0.299-4.992v-213.333c0-23.552 19.115-42.667 42.667-42.667 21.888 0 39.936 16.469 42.368 37.675l0.299 4.992v213.333c0 23.552-19.115 42.667-42.667 42.667zM512 682.667c-23.552 0-42.667-19.115-42.667-42.667s19.115-42.667 42.667-42.667 42.667 19.115 42.667 42.667-19.115 42.667-42.667 42.667z" />
<glyph unicode="&#xe935;" glyph-name="home" d="M245.333 960c135.494 0 245.333-109.839 245.333-245.333v-160c0-47.128-38.205-85.333-85.333-85.333h-160c-135.494 0-245.333 109.839-245.333 245.333s109.839 245.333 245.333 245.333zM245.333 896c-100.148 0-181.333-81.186-181.333-181.333 0-97.202 76.48-176.541 172.548-181.124l8.786-0.209h160c10.473 0 19.183 7.547 20.99 17.499l0.344 3.835v160c0 100.148-81.186 181.333-181.333 181.333zM245.333-64c135.494 0 245.333 109.839 245.333 245.333v160c0 47.128-38.205 85.333-85.333 85.333h-160c-135.494 0-245.333-109.839-245.333-245.333s109.839-245.333 245.333-245.333zM245.333 0c-100.148 0-181.333 81.186-181.333 181.333 0 97.202 76.48 176.541 172.548 181.124l8.786 0.209h160c10.473 0 19.183-7.547 20.99-17.499l0.344-3.835v-160c0-100.148-81.186-181.333-181.333-181.333zM778.667 960c-135.494 0-245.333-109.839-245.333-245.333v-160c0-47.128 38.205-85.333 85.333-85.333h160c135.494 0 245.333 109.839 245.333 245.333s-109.839 245.333-245.333 245.333zM778.667 896c100.148 0 181.333-81.186 181.333-181.333 0-97.202-76.48-176.541-172.548-181.124l-8.786-0.209h-160c-10.473 0-19.183 7.547-20.99 17.499l-0.344 3.835v160c0 100.148 81.186 181.333 181.333 181.333zM778.667-64c-135.494 0-245.333 109.839-245.333 245.333v160c0 47.128 38.205 85.333 85.333 85.333h160c135.494 0 245.333-109.839 245.333-245.333s-109.839-245.333-245.333-245.333zM778.667 0c100.148 0 181.333 81.186 181.333 181.333 0 97.202-76.48 176.541-172.548 181.124l-8.786 0.209h-160c-10.473 0-19.183-7.547-20.99-17.499l-0.344-3.835v-160c0-100.148 81.186-181.333 181.333-181.333z" />
<glyph unicode="&#xe936;" glyph-name="file-excel" horiz-adv-x="942" d="M551.731 726.938v-0.004c0.023-6.125 2.454-11.681 6.39-15.765l-0.004 0.004c3.997-3.904 9.424-6.349 15.446-6.476h153.313l-175.145 180.797v-158.556zM799.13 485.028h81.183c33.997 0 61.768-28.385 61.768-62.996v-261.816c0-34.57-27.853-62.996-61.768-62.996h-81.183v-112.886c0-13.435-5.325-25.354-13.885-34.161-8.464-8.744-20.308-14.172-33.42-14.172-0.030 0-0.060 0-0.090 0h-704.343c-13.148 0-24.822 5.325-33.505 14.172-8.585 8.719-13.886 20.692-13.886 33.904 0 0.090 0 0.18 0.001 0.27v-0.014 926.925c0 13.394 5.325 25.313 13.926 34.161s20.603 14.172 33.423 14.172h479.928c1.065 0.41 2.212 0.41 3.359 0.41 5.202 0 10.527-2.335 14.295-5.734h0.737c0.737-0.41 1.147-0.778 1.884-1.516l245.105-252.969c4.31-4.205 7.026-10.025 7.168-16.481v-0.026c0-1.925-0.41-3.4-0.737-5.407v-192.84zM654.213 257.905c1.72-20.357 9.093-37.11 21.996-50.258 12.984-13.271 36.291-19.825 69.878-19.825 19.128 0 34.98 2.744 47.596 8.397l0.426 0.167c11.807 5.196 21.814 13.728 28.983 24.655 6.922 10.936 10.445 22.856 10.445 35.758 0 11.018-2.621 20.931-7.823 29.86-5.325 8.888-13.763 16.302-25.231 22.323-11.469 5.98-30.597 12.001-57.344 17.859-10.772 2.294-17.654 4.71-20.398 7.373-2.949 2.58-4.424 5.489-4.424 8.684v-0.001c0 0.010 0 0.019 0 0.029 0 4.522 2.1 8.554 5.407 11.196 3.564 3.031 8.97 4.588 16.097 4.588 8.561 0 15.319-2.089 20.234-6.226 4.915-4.096 8.11-10.772 9.667-19.948l57.467 3.523c-2.54 20.89-10.486 36.168-23.757 45.752-13.189 9.667-32.481 14.418-57.754 14.418-20.603 0-36.741-2.662-48.62-7.946-11.837-5.243-20.685-12.493-26.542-21.75-5.939-9.257-8.806-18.964-8.806-29.327l0.002 0.069c-0.013-0.471-0.020-0.944-0.020-1.418 0-14.961 6.651-28.369 17.222-37.481 11.428-10.158 30.474-18.309 57.303-24.412 16.343-3.645 26.706-7.496 31.212-11.674l0.031-0.025c4.019-3.326 6.603-8.324 6.687-13.943v-0.014c-0.083-5.851-2.833-11.057-7.127-14.486-4.669-4.178-11.428-6.267-20.111-6.267-11.674 0-20.685 4.096-26.952 12.165-3.85 4.997-6.472 12.329-7.7 21.914l-58.040-3.727zM475.423 392.786v-201.605h156.672v49.562h-95.642v152.044h-61.030zM241.828 392.786l62.136-96.584-68.198-105.062h68.28l39.035 64.717 38.83-64.717h68.813l-67.256 103.997 61.44 97.649h-66.601l-33.997-62.054-35.062 62.054h-67.42zM207.34 485.028h530.268v163.84h-168.96c-17.736 0-42.394 9.748-54.067 21.668-11.715 11.878-18.842 33.382-18.842 51.405v174.408h-429.179c-1.329-0.030-2.518-0.606-3.356-1.512l-0.003-0.003c-1.229-0.819-1.556-1.925-1.556-3.482v-887.030c0-1.147 0.737-2.662 1.475-3.4 0.737-1.188 2.294-1.516 3.359-1.516h666.173c1.475 0 1.393 0.737 2.212 1.516 1.147 0.737 2.703 2.335 2.703 3.4v92.979h-530.227c-33.833 0-61.768 28.344-61.768 62.996v261.816c0 34.611 27.771 62.915 61.768 62.915z" />
<glyph unicode="&#xe937;" glyph-name="instagram" d="M512 867.712c136.704 0 152.917-0.512 206.933-2.987 138.752-6.315 203.563-72.149 209.877-209.877 2.475-53.973 2.944-70.187 2.944-206.891 0-136.747-0.512-152.917-2.944-206.891-6.357-137.6-70.997-203.563-209.877-209.877-54.016-2.475-70.144-2.987-206.933-2.987-136.704 0-152.917 0.512-206.891 2.987-139.093 6.357-203.563 72.491-209.877 209.92-2.475 53.973-2.987 70.144-2.987 206.891 0 136.704 0.555 152.875 2.987 206.891 6.357 137.685 70.997 203.563 209.877 209.877 54.016 2.432 70.187 2.944 206.891 2.944zM512 960c-139.051 0-156.459-0.597-211.072-3.072-185.941-8.533-289.28-111.701-297.813-297.813-2.517-54.656-3.115-72.064-3.115-211.115s0.597-156.501 3.072-211.115c8.533-185.941 111.701-289.28 297.813-297.813 54.656-2.475 72.064-3.072 211.115-3.072s156.501 0.597 211.115 3.072c185.771 8.533 289.365 111.701 297.771 297.813 2.517 54.613 3.115 72.064 3.115 211.115s-0.597 156.459-3.072 211.072c-8.363 185.771-111.659 289.28-297.771 297.813-54.656 2.517-72.107 3.115-211.157 3.115zM512 710.912c-145.202 0-262.912-117.71-262.912-262.912s117.71-262.912 262.912-262.912v0c145.202 0 262.912 117.71 262.912 262.912s-117.71 262.912-262.912 262.912v0zM512 277.333c-94.257 0-170.667 76.41-170.667 170.667s76.41 170.667 170.667 170.667v0c94.257 0 170.667-76.41 170.667-170.667s-76.41-170.667-170.667-170.667v0zM785.323 782.72c-33.944 0-61.461-27.517-61.461-61.461s27.517-61.461 61.461-61.461v0c33.944 0 61.461 27.517 61.461 61.461s-27.517 61.461-61.461 61.461v0z" />
<glyph unicode="&#xe938;" glyph-name="youtube" d="M836.907 824.149c-153.771 10.496-496.256 10.453-649.813 0-166.272-11.349-185.856-111.787-187.093-376.149 1.237-263.893 20.651-364.8 187.093-376.149 153.6-10.453 496.043-10.496 649.813 0 166.272 11.349 185.856 111.787 187.093 376.149-1.237 263.893-20.651 364.757-187.093 376.149zM384 277.333v341.333l341.333-170.368-341.333-170.965z" />
<glyph unicode="&#xe939;" glyph-name="persons" d="M704.48 760c-85.323 0-155.301-65.181-155.301-146.667s69.978-146.667 155.301-146.667c85.323 0 155.301 65.181 155.301 146.667s-69.978 146.667-155.301 146.667zM704.48 701.333c53.817 0 96.634-39.883 96.634-88s-42.818-88-96.634-88c-53.817 0-96.634 39.883-96.634 88s42.818 88 96.634 88zM323.699 760c-85.323 0-155.301-65.181-155.301-146.667s69.978-146.667 155.301-146.667c85.323 0 155.301 65.181 155.301 146.667s-69.978 146.667-155.301 146.667zM323.699 701.333c53.817 0 96.634-39.883 96.634-88s-42.818-88-96.634-88c-53.817 0-96.634 39.883-96.634 88s42.818 88 96.634 88zM316.444 427.556c142.701 0 258.958-113.221 263.84-254.732l0.16-9.268v-78.222h-58.667v78.222c0 113.402-91.931 205.333-205.333 205.333-110.567 0-200.723-87.392-205.162-196.87l-0.171-8.464v-78.222h-58.667v78.222c0 145.803 118.197 264 264 264zM707.556 427.556c142.701 0 258.958-113.221 263.84-254.732l0.16-9.268v-78.222h-58.667v78.222c0 113.402-91.931 205.333-205.333 205.333-67.501 0-129.36-32.799-167.524-86.565l-5.289-7.822-49.334 31.748c48.262 74.997 131.269 121.306 222.148 121.306z" />
<glyph unicode="&#xe93a;" glyph-name="phone" d="M981.304 214.561v-141.307c0.108-26.525-10.994-51.867-30.579-69.799s-45.837-26.793-72.308-24.405c-145.23 15.749-284.733 65.277-407.3 144.604-114.033 72.318-210.714 168.807-283.175 282.614-79.762 122.88-129.4 262.784-144.891 408.378-2.385 26.336 6.431 52.46 24.295 71.99s43.129 30.668 69.625 30.698h141.588c47.378 0.461 87.761-34.199 94.392-81.021 5.976-45.221 17.059-89.623 33.037-132.358 12.966-34.426 4.673-73.235-21.238-99.386l-59.939-59.82c67.186-117.923 165.018-215.561 283.175-282.614l59.939 59.82c26.203 25.86 65.089 34.137 99.583 21.196 42.82-15.947 87.309-27.007 132.62-32.972 47.458-6.682 82.366-47.799 81.177-95.618z" />
<glyph unicode="&#xe93b;" glyph-name="pick-up" d="M221.5 820.833c-10.552 0-20.502-4.975-26.833-13.417l-134.083-178.833c-1.268-1.691-2.018-3.467-2.917-5.25-0.403-0.805-0.912-1.493-1.25-2.333-1.59-3.886-2.356-7.863-2.417-11.833-0.005-0.237-0.167-0.429-0.167-0.667v-447c0-43.201 35.049-78.167 78.25-78.167h625.75c19.857 0 37.789 7.642 51.583 19.833 7.757 1.647 15.098 5.776 20.167 12.667l108 146.833 6 8.833c17.287 26.945 26.583 58.338 26.583 90.5v425.333l-0.333 4.5c-0.037 0.269-0.207 0.483-0.25 0.75-0.6 3.604-1.723 7.118-3.417 10.333-0.239 0.452-0.574 0.811-0.833 1.25-1.596 2.731-3.528 5.134-5.833 7.333-0.628 0.595-1.245 1.121-1.917 1.667-2.287 1.872-4.791 3.449-7.583 4.667-0.704 0.309-1.355 0.655-2.083 0.917-3.487 1.236-7.184 2.083-11.25 2.083h-715.167zM238.167 753.75h631.5l-83.917-111.75h-631.333l83.75 111.75zM903.083 686.75v-324.75l-0.25-8c-1.485-18.597-8.133-36.47-19.25-51.583l-47.5-64.583v359.583l67 89.333zM120.917 575h648.083v-413.5c0-6.172-4.995-11.167-11.167-11.167l-628.333 0.333c-4.937 1.159-8.583 5.543-8.583 10.833v413.5zM355.583 463.25l-4.583-0.333c-16.363-2.22-29-16.195-29-33.167 0-18.515 15.069-33.583 33.583-33.583h178.75l4.583 0.333c16.363 2.22 28.917 16.278 28.917 33.25 0 18.515-14.985 33.5-33.5 33.5h-178.75z" />
<glyph unicode="&#xe93c;" glyph-name="play" d="M835.407 415.483c-4.711-6.834-10.629-12.752-17.463-17.463l-561.537-387.076c-31.042-21.398-73.553-13.58-94.951 17.463-7.854 11.394-12.060 24.906-12.060 38.744v774.151c0 37.703 30.564 68.267 68.267 68.267 13.839 0 27.35-4.206 38.744-12.060l561.537-387.076c31.042-21.398 38.861-63.909 17.463-94.951zM779.2 454.227l-561.537 387.076v-774.151l561.537 387.076z" />
<glyph unicode="&#xe93d;" glyph-name="products" d="M776.533 789.333c145.067-145.067 166.4-371.2 55.467-537.6l119.467-119.467c34.133-34.133 38.4-93.867 4.267-128s-85.333-34.133-123.733 0l-123.733 123.733c-166.4-110.933-392.533-89.6-537.6 55.467-170.667 166.4-170.667 439.467 0 605.867s439.467 170.667 605.867 0zM776.533 183.467c-8.533-8.533-12.8-12.8-21.333-21.333l115.2-115.2c12.8-12.8 34.133-12.8 46.933-4.267 8.533 8.533 8.533 29.867 0 42.667l-119.467 119.467c-8.533-8.533-12.8-12.8-21.333-21.333zM209.067 750.933c-145.067-145.067-145.067-379.733 0-524.8s379.733-145.067 524.8 0 145.067 379.733 0 524.8-379.733 145.067-524.8 0zM627.2 516.267c17.067 0 29.867-12.8 29.867-29.867 0-12.8-12.8-25.6-25.6-29.867h-315.733c-17.067 0-29.867 12.8-29.867 29.867 0 12.8 12.8 25.6 25.6 29.867h315.733zM627.2 635.733c17.067 0 29.867-12.8 29.867-29.867 0-12.8-12.8-25.6-25.6-29.867h-315.733c-17.067 0-29.867 12.8-29.867 29.867 0 12.8 12.8 25.6 25.6 29.867h315.733zM627.2 401.067c17.067 0 29.867-12.8 29.867-29.867 0-12.8-12.8-25.6-25.6-29.867h-315.733c-17.067 0-29.867 12.8-29.867 29.867 0 12.8 12.8 25.6 25.6 29.867h315.733z" />
<glyph unicode="&#xe93e;" glyph-name="promos" d="M639.398 410.187c59.401 0 107.556-48.154 107.556-107.556s-48.154-107.556-107.556-107.556c-59.401 0-107.556 48.154-107.556 107.556s48.154 107.556 107.556 107.556zM639.398 351.521c-27.001 0-48.889-21.888-48.889-48.889s21.888-48.889 48.889-48.889c27.001 0 48.889 21.888 48.889 48.889s-21.888 48.889-48.889 48.889zM359.798 692.444c59.401 0 107.556-48.154 107.556-107.556s-48.154-107.556-107.556-107.556c-59.401 0-107.556 48.154-107.556 107.556s48.154 107.556 107.556 107.556zM359.798 633.778c-27.001 0-48.889-21.888-48.889-48.889s21.888-48.889 48.889-48.889c27.001 0 48.889 21.888 48.889 48.889s-21.888 48.889-48.889 48.889zM658.641 574.827l-301.899-301.899c-11.455-11.455-30.028-11.455-41.484 0s-11.455 30.028 0 41.484l301.899 301.899c11.455 11.455 30.028 11.455 41.484 0s11.455-30.028 0-41.484zM512 917.333c259.206 0 469.333-210.128 469.333-469.333s-210.128-469.333-469.333-469.333c-259.206 0-469.333 210.128-469.333 469.333v298.667c0 94.257 76.41 170.667 170.667 170.667h298.667zM512 853.333h-298.667c-56.554 0-102.828-44.012-106.44-99.653l-0.227-7.013v-298.667c0-223.859 181.474-405.333 405.333-405.333s405.333 181.474 405.333 405.333c0 220-175.27 399.063-393.793 405.172l-11.54 0.161z" />
<glyph unicode="&#xe93f;" glyph-name="recipes" d="M417.333 856.917c-38.433 2.256-72.798-25.373-78.25-64.167l-4.417-31.5-177.333 24.917c-52.503 7.379-101.038-29.247-108.417-81.75s29.163-101.038 81.667-108.417l690.75-97.083v-392.25l-0.252-5.417c-2.729-26.894-25.467-47.917-53.082-47.917l-517.417 0.252c-26.894 2.729-47.917 25.467-47.917 53.082v384l-0.333 4.333c-2.119 15.619-15.466 27.667-31.667 27.667-17.673 0-32-14.327-32-32v-384l0.25-7.167c3.694-61.473 54.682-110.167 117.083-110.167l519.167 0.252c61.473 3.692 110.167 54.68 110.167 117.082v390.417c36.873 9.172 66.387 39.73 72 79.667 7.379 52.503-29.247 101.121-81.75 108.5l-181.75 25.5 4.417 31.583 0.583 6.083c2.256 38.433-25.373 72.798-64.167 78.25l-211.25 29.667zM414.5 792.917l211.333-29.667 2.333-0.583c4.513-1.751 7.369-6.5 6.667-11.5l-4.417-31.5-232.333 32.667 4.417 31.5 0.583 2.417c1.751 4.513 6.416 7.369 11.417 6.667zM148.417 722.75l718.25-100.917c17.501-2.46 29.71-18.666 27.25-36.167-1.821-12.953-11.175-22.817-23-26.167-12.401-0.63-26.11 1.443-32.417 1.667l-699 98.25c-17.501 2.46-29.71 18.666-27.25 36.167s18.666 29.626 36.167 27.167z" />
<glyph unicode="&#xe940;" glyph-name="remove-from-cart" d="M913.209 502.857c30.297 0 54.857-24.56 54.857-54.857 0-27.543-20.298-50.344-46.751-54.262l-8.106-0.595h-802.418c-30.297 0-54.857 24.56-54.857 54.857 0 27.543 20.298 50.344 46.751 54.262l8.106 0.595h802.418z" />
<glyph unicode="&#xe941;" glyph-name="scan-product" d="M115.2 260.267v-187.733c0-12.8 8.533-21.333 21.333-21.333h192v-72.533h-192c-51.2 0-93.867 42.667-93.867 93.867v187.733h72.533zM981.333 260.267v-187.733c0-51.2-42.667-93.867-93.867-93.867h-187.733v68.267h187.733c12.8 0 21.333 8.533 21.333 21.333v192h72.533zM887.467 917.333c51.2 0 93.867-42.667 93.867-93.867v-187.733h-68.267v187.733c0 12.8-8.533 21.333-21.333 21.333h-192v72.533h187.733zM324.267 917.333v-72.533h-187.733c-12.8 0-21.333-8.533-21.333-21.333v-192h-72.533v192c0 51.2 42.667 93.867 93.867 93.867h187.733zM512 204.8c-17.067 0-34.133 12.8-34.133 34.133v422.4c0 17.067 12.8 34.133 34.133 34.133s34.133-12.8 34.133-34.133v-426.667c0-17.067-17.067-29.867-34.133-29.867zM699.733 204.8c-17.067 0-34.133 12.8-34.133 34.133v422.4c0 17.067 12.8 34.133 34.133 34.133s34.133-12.8 34.133-34.133v-426.667c0-17.067-17.067-29.867-34.133-29.867zM324.267 204.8c-17.067 0-34.133 12.8-34.133 34.133v422.4c0 17.067 12.8 34.133 34.133 34.133s34.133-17.067 34.133-34.133v-426.667c0-17.067-17.067-29.867-34.133-29.867z" />
<glyph unicode="&#xe942;" glyph-name="scan-receipt" d="M113.067 225.067v-152.533c0-11.52 8.301-21.102 19.249-23.089l4.218-0.378h152.533c19.44 0 35.2-15.76 35.2-35.2s-15.76-35.2-35.2-35.2h-152.533c-51.841 0-93.867 42.026-93.867 93.867v152.533c0 19.44 15.76 35.2 35.2 35.2s35.2-15.76 35.2-35.2zM981.333 225.067v-152.533c0-51.841-42.026-93.867-93.867-93.867h-152.533c-19.44 0-35.2 15.76-35.2 35.2s15.76 35.2 35.2 35.2h152.533c11.52 0 21.102 8.301 23.089 19.249l0.378 4.218v152.533c0 19.44 15.76 35.2 35.2 35.2s35.2-15.76 35.2-35.2zM887.467 917.333c51.841 0 93.867-42.026 93.867-93.867v-152.533c0-19.44-15.76-35.2-35.2-35.2s-35.2 15.76-35.2 35.2v152.533c0 11.52-8.301 21.102-19.249 23.089l-4.218 0.378h-152.533c-19.44 0-35.2 15.76-35.2 35.2s15.76 35.2 35.2 35.2h152.533zM324.267 882.133c0-19.44-15.76-35.2-35.2-35.2h-152.533c-11.52 0-21.102-8.301-23.089-19.249l-0.378-4.218v-152.533c0-19.44-15.76-35.2-35.2-35.2s-35.2 15.76-35.2 35.2v152.533c0 51.841 42.026 93.867 93.867 93.867h152.533c19.44 0 35.2-15.76 35.2-35.2z" />
<glyph unicode="&#xe943;" glyph-name="search" d="M462.596 917.333c231.921 0 419.93-188.009 419.93-419.93s-188.009-419.93-419.93-419.93c-231.921 0-419.93 188.009-419.93 419.93s188.009 419.93 419.93 419.93zM462.596 853.333c-196.575 0-355.93-159.355-355.93-355.93s159.355-355.93 355.93-355.93c196.575 0 355.93 159.355 355.93 355.93s-159.355 355.93-355.93 355.93zM736.39 223.61c11.361 11.361 29.138 12.393 41.666 3.098l3.589-3.098 172.912-172.912c12.497-12.497 12.497-32.758 0-45.255-11.361-11.361-29.138-12.394-41.666-3.098l-3.589 3.098-172.912 172.912c-12.497 12.497-12.497 32.758 0 45.255z" />
<glyph unicode="&#xe944;" glyph-name="share" d="M510.104 318.578c-17.067 0-29.867 12.8-29.867 29.867v490.667l-183.467-183.467c-12.8-12.8-34.133-12.8-46.933 0s-12.8 34.133 0 46.933l238.933 238.933c0 0 0 0 0 0s0 0 0 0 0 0 0 0 0 0 0 0c4.267 0 8.533 4.267 12.8 4.267 0 0 0 0 0 0s0 0 0 0c4.267 0 8.533 4.267 12.8 4.267 0 0 0 0 0 0s0 0 0 0 0 0 0 0 0 0 0 0c4.267 0 8.533 0 12.8-4.267 0 0 0 0 0 0s0 0 0 0c4.267 0 8.533-4.267 8.533-8.533 0 0 0 0 0 0s0 0 0 0 0 0 0 0 0 0 0 0l234.667-234.667c12.8-12.8 12.8-34.133 0-46.933s-29.867-8.533-42.667 0l-183.467 183.467v-490.667c0-17.067-12.8-29.867-34.133-29.867zM972.8 34.133c0-51.2-38.4-93.867-89.6-93.867h-733.867c-51.2 0-93.867 38.4-93.867 89.6v371.2c0 17.067 12.8 34.133 34.133 34.133 17.067 0 29.867-12.8 29.867-25.6v-366.933c0-17.067 12.8-29.867 25.6-29.867h729.6c17.067 0 29.867 12.8 29.867 25.6v366.933c0 17.067 12.8 34.133 34.133 34.133 17.067 0 29.867-12.8 29.867-25.6v-379.733z" />
<glyph unicode="&#xe945;" glyph-name="share-stamps" d="M304.862 874.667c12.654-31.283 43.319-53.353 79.138-53.353s66.484 22.070 79.138 53.353h134.195v-63.957l-99.029-0.043-2.447-2.977c-25.855-29.209-62.69-47.778-103.137-50.124l-8.72-0.252c-43.849 0-84.156 19.081-111.857 50.376l-2.532 3.020-120.32-0.043 0.043-105.344 2.395-1.394c41.353-24.949 69.36-69.281 72.058-119.904l0.214-8.044c0-50.773-25.46-96.048-64.746-123.094l-7.617-4.887c41.444-25.021 69.451-69.353 72.149-119.976l0.214-8.044c0-53.947-28.742-101.686-72.271-127.948l-2.395-1.355v-105.344h94.635l1.407 2.359c24.947 41.361 69.283 69.376 119.913 72.074l8.045 0.214c53.954 0 101.698-28.75 127.958-72.288l1.365-2.359 94.677 0.043v-64.043l-139.327-0.020c-5.251 42.096-41.158 74.667-84.673 74.667s-79.421-32.57-84.673-74.667h-160.661c-23.564 0-42.667 19.103-42.667 42.667l0.021 171.329c42.084 5.258 74.646 41.162 74.646 84.671s-32.562 79.412-74.646 84.671v86.659c42.084 5.258 74.646 41.162 74.646 84.671s-32.562 79.412-74.646 84.671l-0.021 171.329c0 23.564 19.103 42.667 42.667 42.667l176.862 0.020zM702.706 683.961c-11.455-11.455-12.41-29.435-2.864-41.978l2.864-3.277 183.163-183.163c3.571-3.571 4.081-9.043 1.53-13.156l-1.53-1.929-183.163-183.163c-12.497-12.497-12.497-32.758 0-45.255 11.455-11.455 29.435-12.41 41.978-2.864l3.277 2.864 183.163 183.163c27.701 27.701 29.086 71.753 4.155 101.089l-4.155 4.505-183.163 183.163c-12.497 12.497-32.758 12.497-45.255 0zM897.942 416.202c17.673 0 32 14.327 32 32 0 16.2-12.039 29.589-27.658 31.708l-4.342 0.292h-471.276c-17.673 0-32-14.327-32-32 0-16.2 12.039-29.589 27.658-31.708l4.342-0.292h471.276z" />
<glyph unicode="&#xe946;" glyph-name="show" d="M512 736c-153.233 0-303.493-84.93-450.678-252.007-11.519-13.075-10.458-32.964 2.386-44.74 147.135-134.901 296.733-203.196 448.292-203.196s301.157 68.295 448.292 203.196c12.844 11.776 13.905 31.664 2.386 44.74-147.185 167.077-297.445 252.007-450.678 252.007zM524.417 671.778c120.083-4.298 241.639-70.957 364.745-202.048l4.064-4.407-4.332-3.816c-126.578-108.087-252.074-161.449-376.895-161.449l-13.872 0.22c-120.247 3.808-241.134 57.145-363.023 161.229l-4.375 3.816 4.107 4.407c127.352 135.611 253.044 202.27 377.163 202.27l12.417-0.222zM641.855 481.391c0-61.472-49.833-111.304-111.304-111.304s-111.304 49.833-111.304 111.304c0 61.472 49.833 111.304 111.304 111.304s111.304-49.833 111.304-111.304z" />
<glyph unicode="&#xe947;" glyph-name="snack" d="M315.75 917.333l-12.833-21.333c-21.333-46.933-21.283-98.15 8.583-145.083s72.467-76.817 123.667-81.083h21.333l12.833 17.083c25.6 46.933 21.35 98.133-4.25 149.333s-72.533 76.817-128 81.083zM606.417 856.5c-8-1.067-15.517-5.267-21.917-11.667-61.47-68.701-95.008-152.849-103.917-247-67.214 36.44-142.875 48.042-211.75 25.083-149.333-51.2-217.65-234.667-157.917-405.333 59.733-174.933 230.417-277.283 379.75-226.083h42.667c149.333-51.2 320.017 51.15 379.75 226.083s-8.583 354.133-157.917 405.333c-66.617 22.206-139.632 15.412-205.167-20.167 9.507 78.962 37.879 145.538 85.75 203.667 12.8 12.8 8.55 29.867-4.25 42.667-8.533 6.4-17.083 8.483-25.083 7.417zM354.167 849.083c21.333-8.533 38.367-21.333 51.167-42.667l4.25-8.583c8.533-21.333 12.85-38.35 8.583-55.417v-4.25h-4.333c-17.067 8.533-34.117 21.333-46.917 42.667s-17.017 42.65-12.75 68.25zM331.5 572.083c51.4 1.8 105.867-17.433 150.667-55.833l21.333-17.083c10.919 12.101 29.513 22.98 36.699 27.933 63.594 41.404 135.137 55.566 193.634 36.067 115.2-38.4 166.45-183.45 115.25-324.25s-183.467-221.883-298.667-187.75c-17.067 4.267-68.267 4.267-85.333 0-115.2-38.4-247.467 42.683-298.667 187.75-51.2 140.8 4.233 285.85 115.167 324.25 16 5.333 32.783 8.317 49.917 8.917z" />
<glyph unicode="&#xe948;" glyph-name="sort" d="M24.18 679.82c-11.108-11.108-11.108-29.118 0-40.227 10.098-10.098 25.901-11.016 37.036-2.754l3.19 2.754 238.664 238.664c3.086 3.086 7.769 3.6 11.387 1.543l2.022-1.543 238.664-238.664c11.108-11.108 29.118-11.108 40.227 0 10.098 10.098 11.016 25.901 2.754 37.036l-2.754 3.19-238.664 238.664c-24.395 24.395-63.054 25.83-89.127 4.305l-4.735-4.305-238.664-238.664zM281.33 887.262v-948.148h56.889v948.148h-56.889zM441.365 197.217c-11.108 11.108-11.108 29.118 0 40.227 10.098 10.098 25.901 11.016 37.036 2.754l3.19-2.754 238.664-238.664c3.086-3.086 7.769-3.6 11.387-1.543l2.022 1.543 238.664 238.664c11.108 11.108 29.118 11.108 40.227 0 10.098-10.098 11.016-25.901 2.754-37.036l-2.754-3.19-238.664-238.664c-24.395-24.395-63.054-25.83-89.127-4.305l-4.735 4.305-238.664 238.664zM698.516-10.225v948.148h56.889v-948.148h-56.889z" />
<glyph unicode="&#xe949;" glyph-name="soup" d="M503.5 917.333l-55.5-29.833 4.25-8.583c17.067-34.133 17.067-68.283 0-102.417l-4.25-8.5c-21.333-59.733-8.517-115.217 38.417-166.417l46.917 46.917-4.25 4.333c-29.867 29.867-34.15 59.717-17.083 89.583l4.25 12.75c25.6 51.2 17.117 106.7-12.75 162.167zM635.75 917.333l-55.5-25.583 4.25-8.583c17.067-34.133 17.067-68.2 0-102.333l-4.25-8.583c-21.333-59.733-8.517-115.217 38.417-166.417l46.917 47-4.25 4.25c-29.867 29.867-34.15 59.717-17.083 89.583l4.25 8.5c25.6 51.2 17.117 106.7-12.75 162.167zM763.75 917.333l-55.5-25.583 4.25-8.583c17.067-34.133 17.067-68.2 0-102.333l-4.25-8.583c-21.333-59.733-8.517-115.217 38.417-166.417l46.917 47-4.25 4.25c-29.867 29.867-34.15 59.717-17.083 89.583l4.25 8.5c25.6 51.2 17.117 106.7-12.75 162.167zM187.083 813.75c-14.6 0.175-29.2-3.583-42-11.583-34.133-21.333-38.433-72.6-12.833-111l100.75-157.833h-190.333v-76.833c0-264.533 209.067-477.833 469.333-477.833s469.333 213.3 469.333 477.833v76.833h-560.417l-164.917 243.167-4.25 4.333c-16 21.333-40.333 32.625-64.667 32.917zM187.333 748.333c4.4 0.2 9.967-3.767 13.167-10.167l138.833-204.833h-26.417l-129.417 192v4.25c-4.267 8.533-4.267 17.083 0 17.083 1.067 1.067 2.367 1.6 3.833 1.667zM102.417 465.083h810.667v-12.833c0-17.378-1.443-34.356-3.5-51.167h-803.667c-2.079 16.825-3.5 33.804-3.5 51.167v12.833zM119.917 332.833h775.667c-50.117-167.89-203.26-290.167-387.833-290.167h-12.833c-176.945 3.469-325.6 125.417-375 290.167z" />
<glyph unicode="&#xe94a;" glyph-name="stamp-history" d="M560.862 874.686c12.654-31.283 43.319-53.353 79.138-53.353s66.484 22.070 79.138 53.353l176.862-0.020c23.564 0 42.667-19.103 42.667-42.667v-170.667c-47.128 0-85.333-38.205-85.333-85.333s38.205-85.333 85.333-85.333v-85.333c-47.128 0-85.333-38.205-85.333-85.333s38.205-85.333 85.333-85.333v-170.667c0-23.564-19.103-42.667-42.667-42.667h-160.661c-5.251 42.096-41.158 74.667-84.673 74.667s-79.421-32.57-84.673-74.667h-107.988c-5.251 42.096-41.158 74.667-84.673 74.667s-79.421-32.57-84.673-74.667h-160.661c-23.564 0-42.667 19.103-42.667 42.667l0.021 171.329c42.084 5.258 74.646 41.162 74.646 84.671s-32.562 79.412-74.646 84.671v86.659c42.084 5.258 74.646 41.162 74.646 84.671s-32.562 79.412-74.646 84.671l-0.021 171.329c0 23.564 19.103 42.667 42.667 42.667l176.862 0.020c12.654-31.283 43.319-53.353 79.138-53.353s66.484 22.070 79.138 53.353h97.723zM874.667 810.709h-120.363l-2.447-3c-25.855-29.209-62.69-47.778-103.137-50.124l-8.72-0.252c-43.849 0-84.156 19.081-111.857 50.376l-2.489 3h-27.349l-2.447-3c-25.855-29.209-62.69-47.778-103.137-50.124l-8.72-0.252c-43.849 0-84.156 19.081-111.857 50.376l-2.489 3-120.363-0.043 0.043-105.344 2.395-1.375c41.353-24.949 69.36-69.281 72.058-119.904l0.214-8.044c0-50.773-25.46-96.048-64.746-123.094l-7.659-4.906c41.487-25.001 69.494-69.333 72.192-119.956l0.214-8.044c0-53.947-28.742-101.686-72.271-127.948l-2.395-1.332v-105.387l94.677 0.043 1.365 2.336c24.947 41.361 69.283 69.376 119.913 72.074l8.045 0.214c53.954 0 101.698-28.75 127.958-72.288l1.322-2.336h18.731l1.365 2.336c24.947 41.361 69.283 69.376 119.913 72.074l8.045 0.214c53.954 0 101.698-28.75 127.958-72.288l1.322-2.336 94.72-0.043v99.755l-4.627 2.247c-45.662 23.669-77.552 70.22-80.485 124.472l-0.221 8.194c0 52.234 26.818 98.204 67.436 124.893l4.97 3.107-4.97 3.107c-38.48 25.284-64.575 67.874-67.215 116.7l-0.221 8.194c0 57.732 32.761 107.813 80.706 132.665l4.627 2.29v99.755zM512 693.333c16.2 0 29.589-12.039 31.708-27.658l0.292-4.342v-192.213l129.939-55.707c14.89-6.382 22.454-22.721 18.249-37.912l-1.442-4.106c-6.382-14.89-22.721-22.454-37.912-18.249l-4.106 1.442-149.333 64c-10.295 4.412-17.423 13.821-19.044 24.68l-0.351 4.732v213.333c0 17.673 14.327 32 32 32z" />
<glyph unicode="&#xe94b;" glyph-name="stamp-overview" d="M284.148 917.333c13.919-34.411 47.651-58.687 87.052-58.687s73.133 24.276 87.052 58.687h107.496c13.919-34.411 47.651-58.687 87.052-58.687s73.133 24.276 87.052 58.687l194.548-0.022c25.921 0 46.933-21.012 46.933-46.932v-187.729c-51.841 0-93.867-42.025-93.867-93.865s42.026-93.865 93.867-93.865v-93.865c-51.841 0-93.867-42.025-93.867-93.865s42.026-93.865 93.867-93.865v-187.729c0-25.92-21.013-46.932-46.933-46.932h-176.727c-5.776 46.305-45.274 82.131-93.14 82.131s-87.363-35.826-93.14-82.131h-118.787c-5.776 46.305-45.274 82.131-93.14 82.131s-87.363-35.826-93.14-82.131h-176.727c-25.921 0-46.933 21.012-46.933 46.932l0.023 188.458c46.292 5.784 82.11 45.277 82.11 93.135s-35.818 87.351-82.11 93.135v95.323c46.292 5.784 82.11 45.277 82.11 93.135s-35.818 87.351-82.11 93.135l-0.023 188.458c0 25.92 21.013 46.932 46.933 46.932l194.548 0.022zM778.581 846.982l-2.738-3.322c-30.472-34.424-74.809-55.412-123.043-55.412s-92.571 20.988-123.043 55.412l-2.738 3.275h-30.084l-2.692-3.275c-28.44-32.129-68.959-52.554-113.451-55.135l-9.592-0.278c-48.234 0-92.571 20.988-123.043 55.412l-2.785 3.322-132.352-0.047 0.047-115.876 2.635-1.534c45.488-27.444 76.296-76.208 79.263-131.892l0.235-8.848c0-55.849-28.006-105.65-71.221-135.4l-8.378-5.375c45.588-27.522 76.397-76.286 79.364-131.971l0.235-8.848c0-59.34-31.616-111.852-79.498-140.739l-2.635-1.491v-115.876h104.098l1.548 2.595c27.442 45.496 76.212 76.312 131.905 79.28l8.849 0.235c59.349 0 111.868-31.624 140.754-79.515l1.501-2.595h20.51l1.548 2.595c27.442 45.496 76.212 76.312 131.905 79.28l8.849 0.235c59.349 0 111.868-31.624 140.754-79.515l1.501-2.595h104.145v109.728l-5.090 2.45c-50.228 26.035-85.307 77.241-88.534 136.916l-0.243 9.013c0 57.456 29.5 108.022 74.179 137.379l5.513 3.439-5.513 3.396c-42.328 27.812-71.032 74.659-73.936 128.367l-0.243 9.013c0 63.504 36.037 118.591 88.777 145.928l5.090 2.493v109.728l-132.352 0.047z" />
<glyph unicode="&#xe94c;" glyph-name="time" d="M512 917.333c260.267 0 469.333-209.067 469.333-469.333s-209.067-469.333-469.333-469.333-469.333 209.067-469.333 469.333 209.067 469.333 469.333 469.333zM512 853.333c-221.867 0-405.333-183.467-405.333-405.333s183.467-405.333 405.333-405.333 405.333 183.467 405.333 405.333-183.467 405.333-405.333 405.333zM469.333 763.733c17.067 0 29.867-12.8 34.133-29.867v-277.333h217.6c17.067 0 29.867-12.8 34.133-29.867v-4.267c0-17.067-12.8-29.867-29.867-34.133h-285.867v345.6c-4.267 17.067 12.8 29.867 29.867 29.867z" />
<glyph unicode="&#xe94d;" glyph-name="trash" d="M853.333 650.667c16.2 0 29.589-12.039 31.708-27.658l0.292-4.342v-554.667c0-39.175-30.17-71.304-68.543-74.419l-6.124-0.248h-597.333c-39.175 0-71.304 30.17-74.419 68.543l-0.248 6.124v554.667c0 17.673 14.327 32 32 32 16.2 0 29.589-12.039 31.708-27.658l0.292-4.342v-554.667c0-5.049 3.509-9.279 8.221-10.385l2.446-0.282h597.333c5.049 0 9.279 3.509 10.385 8.221l0.282 2.446v554.667c0 17.673 14.327 32 32 32zM512 906.667c62.401 0 113.425-48.713 117.119-110.186l0.214-7.148v-42.667h-64v42.667c0 29.455-23.878 53.333-53.333 53.333-27.614 0-50.327-20.987-53.058-47.88l-0.275-5.453v-42.667h-64v42.667c0 64.801 52.532 117.333 117.333 117.333zM853.333 778.667c17.673 0 32-14.327 32-32 0-16.2-12.039-29.589-27.658-31.708l-4.342-0.292h-682.667c-17.673 0-32 14.327-32 32 0 16.2 12.039 29.589 27.658 31.708l4.342 0.292h682.667zM512 646.4c16.2 0 29.589-12.039 31.708-27.658l0.292-4.342v-460.8c0-17.673-14.327-32-32-32-16.2 0-29.589 12.039-31.708 27.658l-0.292 4.342v460.8c0 17.673 14.327 32 32 32zM682.667 646.4c16.2 0 29.589-12.039 31.708-27.658l0.292-4.342v-460.8c0-17.673-14.327-32-32-32-16.2 0-29.589 12.039-31.708 27.658l-0.292 4.342v460.8c0 17.673 14.327 32 32 32zM341.333 646.4c16.2 0 29.589-12.039 31.708-27.658l0.292-4.342v-460.8c0-17.673-14.327-32-32-32-16.2 0-29.589 12.039-31.708 27.658l-0.292 4.342v460.8c0 17.673 14.327 32 32 32z" />
<glyph unicode="&#xe94e;" glyph-name="walking-route" d="M515.877 515.888c0 130.521 45.713 252.113 137.139 252.113 64.597 0 138.997-56.479 172.596-214.615 9.812-46.193 12.155-93.731 8.856-140.95-2.299-32.859-8.475-65.221-16.487-97.003l-5.010-18.999-22.815-83.099h-182.853c0 57.981-9.918 89.971-23.462 115.47l-6.009 10.588-6.342 10.131-9.9 15.090c-26.97 41.268-45.713 100.85-45.713 151.277zM582.787 515.888c0-33.081 11.874-74.931 29.395-105.772l6.599-10.702 6.53-9.928c21.654-33.097 35.344-62.594 42.566-99.459l1.691-9.809h69.585l9.303 33.935c9.25 33.671 15.214 62.56 18.090 89.579l1.18 13.365c3.012 43.078 0.571 84.104-7.559 122.378-24.212 113.967-67.627 161.611-107.149 161.611-34.564 0-70.23-72.895-70.23-185.203zM111.955 561.769c-2.901 41.315-1.459 85.412 5.523 126.74l3.332 17.525v-3.315c33.585 158.136 107.986 214.615 172.59 214.615 91.429 0 137.144-121.592 137.144-252.113 0-46.546-15.971-100.895-39.64-141.442l-6.074-9.835c-21.6-33.053-37.081-79.452-44.13-136.73l-1.587-14.547h-182.858l-22.816 83.099c-10.386 37.859-18.729 76.571-21.487 116.005zM181.25 662.583c-3.18-24.399-4.365-50.425-3.542-76.542l0.994-19.586c1.851-26.482 6.755-54.333 14.912-86.511l4.35-16.464 9.258-33.93h74.359l0.742 3.544c8.795 40.503 22.080 76.374 39.693 106.45l6.81 11.006c20.444 31.284 34.815 78.284 34.815 114.673 0 112.308-35.67 185.203-70.234 185.203-38.115 0-79.838-44.305-104.473-149.65l-6.376-29.503-1.304-8.689zM697.211-42.666c-72.156 0-90.623 58.576-95.014 107.484l-0.854 12.495-0.426 17.33 0.292 26.25v49.777h192l0.086-58.635 0.21-21.22-0.19-11.906-0.592-12.46-1.154-12.786c-5.444-47.198-25.34-96.327-94.357-96.327zM667.875 103.737l-0.030-4.354c-0.095-18.259 0.673-30.968 3-43.724 4.716-25.845 9.643-31.412 26.368-31.412 15.064 0 20.956 3.171 24.69 18.192l1.867 9.42 0.853 5.688c0.462 3.33 0.833 6.624 1.119 10.056l0.63 10.891 0.213 12.76-0.098 12.485h-58.612zM249.184 106.639c-72.156 0-90.623 58.576-95.014 107.484l-0.854 12.495-0.372 11.788 0.006 15.763 0.234 16.030v49.777h192l0.086-58.635 0.21-21.22-0.19-11.906c-0.121-4.074-0.311-8.242-0.592-12.46l-1.154-12.786c-5.444-47.198-25.34-96.327-94.357-96.327zM219.839 253.021l-0.023-4.332c-0.095-18.259 0.673-30.968 3-43.724 4.716-25.845 9.643-31.412 26.368-31.412 19.171 0 23.488 5.136 27.409 33.299 0.462 3.33 0.833 6.624 1.119 10.056l0.63 10.891c0.068 1.944 0.119 3.962 0.153 6.084l-0.046 19.14h-58.612z" />
<glyph unicode="&#xe94f;" glyph-name="twitter" d="M1024 776.149c-35.137-16.009-75.896-27.653-118.641-32.866l-2.020-0.201c43.457 26.292 76.122 66.69 91.949 114.737l0.424 1.487c-38.404-23.19-83.102-40.879-130.717-50.529l-2.702-0.457c-38.369 40.881-92.746 66.347-153.070 66.347-0.096 0-0.193 0-0.289 0h0.015c-135.637 0-235.307-126.549-204.672-257.92-174.997 9.023-328.926 92.175-432.136 218.411l-0.845 1.066c-17.882-30.279-28.446-66.722-28.446-105.632 0-72.583 36.763-136.58 92.685-174.385l0.743-0.474c-35.082 1.14-67.685 10.746-96.147 26.825l1.043-0.542c-2.304-97.323 67.456-188.373 168.491-208.64-16.549-4.674-35.555-7.361-55.188-7.361-14.043 0-27.766 1.375-41.040 3.997l1.337-0.22c27.646-84.128 104.723-144.123 196.062-145.874l0.205-0.003c-71.049-56.139-161.915-90.050-260.702-90.050-17.741 0-35.227 1.094-52.393 3.217l2.055-0.207c90.872-59.182 202.074-94.379 321.498-94.379 0.193 0 0.387 0 0.58 0h-0.030c390.059 0 610.432 329.429 597.12 624.896 41.272 30.085 76.055 66.117 103.869 107.247l0.963 1.51z" />
<glyph unicode="&#xe950;" glyph-name="facebook" d="M384 618.667h-128v-170.667h128v-512h213.333v512h155.392l15.275 170.667h-170.667v71.125c0 40.747 8.192 56.875 47.573 56.875h123.093v213.333h-162.475c-153.429 0-221.525-67.541-221.525-196.907v-144.427z" />
<glyph unicode="&#xe951;" glyph-name="whatsapp" d="M873 811.2c-95.8 96-223.2 148.8-359 148.8-279.6 0-507.2-227.6-507.2-507.4 0-89.4 23.4-176.8 67.8-253.6l-72-263 269 70.6c74.2-40.4 157.6-61.8 242.4-61.8h0.2c0 0 0 0 0 0 279.6 0 507.4 227.6 507.4 507.4 0 135.6-52.8 263-148.6 359zM514.2 30.4v0c-75.8 0-150 20.4-214.8 58.8l-15.4 9.2-159.6-41.8 42.6 155.6-10 16c-42.4 67-64.6 144.6-64.6 224.4 0 232.6 189.2 421.8 422 421.8 112.6 0 218.6-44 298.2-123.6 79.6-79.8 123.4-185.6 123.4-298.4-0.2-232.8-189.4-422-421.8-422zM745.4 346.4c-12.6 6.4-75 37-86.6 41.2s-20 6.4-28.6-6.4c-8.4-12.6-32.8-41.2-40.2-49.8-7.4-8.4-14.8-9.6-27.4-3.2s-53.6 19.8-102 63c-37.6 33.6-63.2 75.2-70.6 87.8s-0.8 19.6 5.6 25.8c5.8 5.6 12.6 14.8 19 22.2s8.4 12.6 12.6 21.2c4.2 8.4 2.2 15.8-1 22.2s-28.6 68.8-39 94.2c-10.2 24.8-20.8 21.4-28.6 21.8-7.4 0.4-15.8 0.4-24.2 0.4s-22.2-3.2-33.8-15.8c-11.6-12.6-44.4-43.4-44.4-105.8s45.4-122.6 51.8-131.2c6.4-8.4 89.4-136.6 216.6-191.4 30.2-13 53.8-20.8 72.2-26.8 30.4-9.6 58-8.2 79.8-5 24.4 3.6 75 30.6 85.6 60.2s10.6 55 7.4 60.2c-3 5.6-11.4 8.8-24.2 15.2z" />
<glyph unicode="&#xe952;" glyph-name="pinterest" d="M512 891.6c-245 0-443.6-198.6-443.6-443.6 0-188 117-348.4 282-413-3.8 35-7.4 89 1.6 127.2 8 34.6 52 220.4 52 220.4s-13.2 26.6-13.2 65.8c0 61.6 35.8 107.8 80.2 107.8 37.8 0 56.2-28.4 56.2-62.4 0-38-24.2-95-36.8-147.6-10.6-44.2 22-80.2 65.6-80.2 78.8 0 139.4 83.2 139.4 203.2 0 106.2-76.4 180.4-185.2 180.4-126.2 0-200.2-94.6-200.2-192.6 0-38.2 14.6-79 33-101.2 3.6-4.4 4.2-8.2 3-12.8-3.4-14-10.8-44.2-12.4-50.4-2-8.2-6.4-9.8-14.8-6-55.4 25.8-90 106.8-90 171.8 0 140 101.6 268.4 293 268.4 153.8 0 273.4-109.6 273.4-256.2 0-152.8-96.4-276-230.2-276-45 0-87.2 23.4-101.6 51 0 0-22.2-84.6-27.6-105.4-10-38.6-37-86.8-55.2-116.2 41.6-12.8 85.6-19.8 131.4-19.8 245 0 443.6 198.6 443.6 443.6 0 245.2-198.6 443.8-443.6 443.8z" />
<glyph unicode="&#xe953;" glyph-name="stop_circle" d="M342 278h340v340h-340v-340zM512 874q-88 0-165-33t-136-92-92-136-33-165 33-165 92-136 136-92 165-33 165 33 136 92 92 136 33 165-33 165-92 136-136 92-165 33v0z" />
<glyph unicode="&#xe954;" glyph-name="printer" d="M256 896h512v-128h-512v128zM960 704h-896c-35.2 0-64-28.8-64-64v-320c0-35.2 28.794-64 64-64h192v-256h512v256h192c35.2 0 64 28.8 64 64v320c0 35.2-28.8 64-64 64zM128 512c-35.346 0-64 28.654-64 64s28.654 64 64 64 64-28.654 64-64-28.652-64-64-64zM704 64h-384v320h384v-320z" />
</font>
</defs>
</svg>
