<svg width="283" height="59" viewBox="0 0 283 59" xmlns="http://www.w3.org/2000/svg">
    <g fill="none" fill-rule="evenodd">
        <path d="M0 0h283v59H0z"/>
        <path d="M277.912 9.09c0 3.507-2.702 6.378-6.041 6.378-.318 0-.795 0-1.113-.16-2.544-.478-5.088-.797-7.79-.797-3.021 0-8.268.16-8.268 3.508 0 7.016 26.392.319 26.392 21.049 0 14.35-13.355 18.018-24.484 18.018-5.724 0-10.493-.478-15.74-1.435-2.862-.478-5.088-3.189-5.088-6.378v-8.61c5.088 2.232 11.607 3.507 17.33 3.507 4.61 0 8.744-.956 8.744-3.667 0-7.176-26.392-.798-26.392-21.527 0-14.83 14.468-17.381 25.916-17.381 5.405 0 11.447.797 16.693 1.913V9.09h-.159zM69.796 56.13V9.09c0-3.509 2.544-6.38 6.042-6.38h27.346c7.79 0 18.442 4.147 18.442 18.498 0 14.033-8.426 19.614-18.442 19.614H89.352v9.089c0 3.508-2.703 6.378-6.042 6.378H69.796v-.16zm19.397-40.981v13.235h3.656c4.611 0 9.38-.957 9.38-6.857 0-5.74-4.769-6.378-9.38-6.378h-3.656zM225.764 34.124c0 17.381-10.016 22.962-25.28 22.962-14.15 0-25.12-6.218-25.12-22.005V2.551h13.356c3.338 0 6.041 2.87 6.041 6.379v25.354c0 5.102 1.431 8.93 6.042 8.93 5.087 0 6.2-3.668 6.2-8.77V2.55h12.878c3.18 0 6.042 2.87 6.042 6.379v25.194h-.159zM130.053 56.13V2.55h13.355c3.18 0 6.041 2.87 6.041 6.379v31.413h19.397v9.408c0 3.508-2.703 6.379-6.042 6.379h-32.751zM26.074 14.67v8.77c0 2.392-1.749 4.306-4.134 4.306h-8.108c-6.678 0-12.083-5.74-12.083-12.916 0-7.016 5.405-12.916 12.083-12.916 6.837 0 12.242 5.74 12.242 12.756z" fill="#FFF"/>
        <path d="M26.074 44.33v-8.611c0-2.392-1.749-4.305-4.134-4.305h-8.108c-6.678 0-12.083 5.74-12.083 12.916 0 7.175 5.405 12.916 12.083 12.916 6.837 0 12.242-5.74 12.242-12.916z" fill="#554DA7"/>
        <path d="M29.413 44.33v-8.611c0-2.392 1.749-4.305 4.134-4.305h8.108c6.678 0 12.242 5.74 12.242 12.916 0 7.175-5.564 12.916-12.242 12.916-6.677 0-12.242-5.74-12.242-12.916z" fill="#227647"/>
        <path d="M29.572 14.67v8.77c0 2.392 1.749 4.306 3.975 4.306h8.108c6.837 0 12.242-5.74 12.242-12.916 0-7.016-5.405-12.916-12.242-12.916-6.677 0-12.083 5.74-12.083 12.756z" fill="#E3131D"/>
    </g>
</svg>
